<svg width="28" height="28" viewBox="0 0 28 28" fill="none" xmlns="http://www.w3.org/2000/svg">
<path d="M14 4.66602L14 3.91602H14V4.66602ZM23.333 13.999L24.083 13.999V13.999H23.333ZM21.7725 19.1641L21.1482 18.7484C21.0146 18.949 20.9856 19.2016 21.0702 19.4273L21.7725 19.1641ZM23.335 23.332L23.0714 24.0342C23.3468 24.1376 23.6572 24.0704 23.8652 23.8625C24.0732 23.6545 24.1405 23.3442 24.0372 23.0688L23.335 23.332ZM19.1689 21.7686L19.4325 21.0664C19.2066 20.9816 18.9537 21.0107 18.7529 21.1445L19.1689 21.7686ZM14 23.332V24.082H14L14 23.332ZM4.66699 13.999H3.91699V13.999L4.66699 13.999ZM14 4.66602L14 5.41602C18.7402 5.41607 22.583 9.25886 22.583 13.999H23.333H24.083C24.083 8.43042 19.5686 3.91608 14 3.91602L14 4.66602ZM23.333 13.999L22.583 13.999C22.583 15.7565 22.054 17.3881 21.1482 18.7484L21.7725 19.1641L22.3967 19.5797C23.4608 17.9817 24.083 16.0624 24.083 13.999L23.333 13.999ZM21.7725 19.1641L21.0702 19.4273L22.6327 23.5953L23.335 23.332L24.0372 23.0688L22.4747 18.9008L21.7725 19.1641ZM23.335 23.332L23.5985 22.6299L19.4325 21.0664L19.1689 21.7686L18.9054 22.4707L23.0714 24.0342L23.335 23.332ZM19.1689 21.7686L18.7529 21.1445C17.3918 22.0519 15.759 22.582 14 22.582L14 23.332L14 24.082C16.0653 24.082 17.9861 23.4585 19.5849 22.3926L19.1689 21.7686ZM14 23.332V22.582C9.25984 22.582 5.41705 18.7392 5.41699 13.999L4.66699 13.999L3.91699 13.999C3.91706 19.5676 8.4314 24.082 14 24.082V23.332ZM4.66699 13.999H5.41699C5.41699 9.25882 9.2598 5.41602 14 5.41602V4.66602V3.91602C8.43137 3.91602 3.91699 8.43039 3.91699 13.999H4.66699Z" fill="#404040"/>
<ellipse cx="9.33366" cy="14.0007" rx="1.16667" ry="1.16667" fill="#404040"/>
<circle cx="13.9997" cy="14.0007" r="1.16667" fill="#404040"/>
<circle cx="18.6667" cy="14.0007" r="1.16667" fill="#404040"/>
<circle cx="6" cy="6" r="5.25" transform="matrix(-1 0 0 1 28 0)" fill="#0370FF" stroke="white" stroke-width="1.5"/>
</svg>
