<svg width="24" height="24" viewBox="0 0 24 24" fill="none" xmlns="http://www.w3.org/2000/svg">
<mask id="mask0_214_1405" style="mask-type:alpha" maskUnits="userSpaceOnUse" x="0" y="0" width="24" height="24">
<rect width="24" height="24" fill="#D9D9D9"/>
</mask>
<g mask="url(#mask0_214_1405)">
<path d="M9.00007 16.25C8.65007 16.25 8.35424 16.1292 8.11257 15.8875C7.87091 15.6458 7.75007 15.35 7.75007 15C7.75007 14.65 7.87091 14.3542 8.11257 14.1125C8.35424 13.8708 8.65007 13.75 9.00007 13.75C9.35007 13.75 9.64591 13.8708 9.88757 14.1125C10.1292 14.3542 10.2501 14.65 10.2501 15C10.2501 15.35 10.1292 15.6458 9.88757 15.8875C9.64591 16.1292 9.35007 16.25 9.00007 16.25ZM15.0001 16.25C14.6501 16.25 14.3542 16.1292 14.1126 15.8875C13.8709 15.6458 13.7501 15.35 13.7501 15C13.7501 14.65 13.8709 14.3542 14.1126 14.1125C14.3542 13.8708 14.6501 13.75 15.0001 13.75C15.3501 13.75 15.6459 13.8708 15.8876 14.1125C16.1292 14.3542 16.2501 14.65 16.2501 15C16.2501 15.35 16.1292 15.6458 15.8876 15.8875C15.6459 16.1292 15.3501 16.25 15.0001 16.25ZM12.0001 22C14.2334 22 16.1251 21.225 17.6751 19.675C19.2251 18.125 20.0001 16.2333 20.0001 14C20.0001 13.6 19.9751 13.2125 19.9251 12.8375C19.8751 12.4625 19.7834 12.1 19.6501 11.75C19.3001 11.8333 18.9501 11.8958 18.6001 11.9375C18.2501 11.9792 17.8834 12 17.5001 12C15.9834 12 14.5501 11.675 13.2001 11.025C11.8501 10.375 10.7001 9.46666 9.75007 8.3C9.21674 9.6 8.45424 10.7292 7.46257 11.6875C6.47091 12.6458 5.31674 13.3667 4.00007 13.85V14C4.00007 16.2333 4.77507 18.125 6.32507 19.675C7.87507 21.225 9.76674 22 12.0001 22ZM12.0018 23.5C10.6878 23.5 9.45274 23.2506 8.29657 22.7517C7.14041 22.2531 6.13474 21.5762 5.27957 20.7212C4.42441 19.8662 3.74732 18.8608 3.24832 17.705C2.74949 16.5492 2.50007 15.3142 2.50007 14C2.50007 13.6268 2.52224 13.257 2.56657 12.8905C2.61074 12.5238 2.68024 12.1719 2.77507 11.8347C2.02641 11.4077 1.42482 10.8164 0.970324 10.0607C0.515824 9.30525 0.288574 8.469 0.288574 7.552C0.288574 6.16866 0.771908 4.99366 1.73857 4.027C2.70524 3.06033 3.88024 2.577 5.26357 2.577C6.12774 2.577 6.92266 2.7815 7.64832 3.1905C8.37382 3.5995 8.96157 4.1565 9.41157 4.8615C9.81924 4.741 10.2415 4.65066 10.6783 4.5905C11.115 4.53016 11.5556 4.5 12.0001 4.5C13.3142 4.5 14.5492 4.74933 15.7051 5.248C16.8609 5.74666 17.8663 6.42341 18.7213 7.27825C19.5763 8.13308 20.2532 9.13833 20.7518 10.294C21.2507 11.4497 21.5001 12.6844 21.5001 13.9982C21.5001 15.3122 21.2507 16.5473 20.7521 17.7035C20.2534 18.8597 19.5767 19.8653 18.7218 20.7205C17.867 21.5757 16.8617 22.2527 15.7061 22.7517C14.5504 23.2506 13.3157 23.5 12.0018 23.5Z" fill="#202128"/>
</g>
</svg>
