<svg width="28" height="28" viewBox="0 0 28 28" fill="none" xmlns="http://www.w3.org/2000/svg">
<g id="&#235;&#169;&#148;&#236;&#139;&#156;&#236;&#167;&#128;">
<path id="Union" d="M21.7729 19.1668L21.1487 18.751C21.015 18.9517 20.986 19.2044 21.0707 19.4302L21.7729 19.1668ZM19.1703 21.7704L19.4336 21.0682C19.2078 20.9835 18.955 21.0126 18.7543 21.1464L19.1703 21.7704ZM23.3349 23.3321L23.0715 24.0344C23.3469 24.1376 23.6573 24.0704 23.8652 23.8625C24.0732 23.6545 24.1404 23.3442 24.0371 23.0688L23.3349 23.3321ZM22.5828 13.9994C22.5828 15.7579 22.0547 17.3908 21.1487 18.751L22.3971 19.5826C23.4621 17.9838 24.0828 16.0629 24.0828 13.9994H22.5828ZM13.9999 5.4165C18.7401 5.4165 22.5828 9.2592 22.5828 13.9994H24.0828C24.0828 8.43077 19.5685 3.9165 13.9999 3.9165V5.4165ZM5.41699 13.9994C5.41699 9.2592 9.25969 5.4165 13.9999 5.4165V3.9165C8.43126 3.9165 3.91699 8.43077 3.91699 13.9994H5.41699ZM13.9999 22.5823C9.25969 22.5823 5.41699 18.7396 5.41699 13.9994H3.91699C3.91699 19.568 8.43126 24.0823 13.9999 24.0823V22.5823ZM18.7543 21.1464C17.3935 22.0535 15.7596 22.5823 13.9999 22.5823V24.0823C16.0648 24.0823 17.9869 23.4608 19.5863 22.3944L18.7543 21.1464ZM18.907 22.4727L23.0715 24.0344L23.5982 22.6299L19.4336 21.0682L18.907 22.4727ZM24.0371 23.0688L22.4751 18.9035L21.0707 19.4302L22.6326 23.5955L24.0371 23.0688Z" fill="#404040"/>
<ellipse id="Ellipse 14" cx="9.33366" cy="14.0002" rx="1.16667" ry="1.16667" fill="#404040"/>
<circle id="Ellipse 15" cx="13.9997" cy="14.0002" r="1.16667" fill="#404040"/>
<circle id="Ellipse 16" cx="18.6667" cy="14.0002" r="1.16667" fill="#404040"/>
</g>
</svg>
