<svg width="24" height="24" viewBox="0 0 24 24" fill="none" xmlns="http://www.w3.org/2000/svg">
<mask id="mask0_380_4820" style="mask-type:alpha" maskUnits="userSpaceOnUse" x="0" y="0" width="24" height="24">
<rect width="24" height="24" fill="#D9D9D9"/>
</mask>
<g mask="url(#mask0_380_4820)">
<path d="M4 19.2667H8.46167V15.5555C8.46167 15.2597 8.57711 15.0116 8.808 14.8113C9.03911 14.6112 9.32533 14.5111 9.66667 14.5111H14.3333C14.6747 14.5111 14.9609 14.6112 15.192 14.8113C15.4229 15.0116 15.5383 15.2597 15.5383 15.5555V19.2667H20V9.04429C20 8.98517 19.985 8.93153 19.955 8.88338C19.9252 8.83523 19.8847 8.79257 19.8333 8.7554L12.2437 3.81105C12.1752 3.75924 12.094 3.73334 12 3.73334C11.906 3.73334 11.8248 3.75924 11.7563 3.81105L4.16667 8.7554C4.11533 8.79257 4.07478 8.83523 4.045 8.88338C4.015 8.93153 4 8.98517 4 9.04429V19.2667ZM2 19.2667V9.04429C2 8.71361 2.08533 8.40036 2.256 8.10453C2.42689 7.80852 2.66289 7.56479 2.964 7.37335L10.554 2.41774C10.9751 2.13925 11.4564 2 11.998 2C12.5396 2 13.0222 2.13925 13.446 2.41774L21.036 7.37335C21.3371 7.56479 21.5731 7.80852 21.744 8.10453C21.9147 8.40036 22 8.71361 22 9.04429V19.2667C22 19.7393 21.803 20.1463 21.409 20.4878C21.015 20.8293 20.5453 21 20 21H14.7437C14.4021 21 14.1159 20.8999 13.885 20.6996C13.6539 20.4995 13.5383 20.2514 13.5383 19.9554V16.2445H10.4617V19.9554C10.4617 20.2514 10.3461 20.4995 10.115 20.6996C9.88411 20.8999 9.59789 21 9.25633 21H4C3.45467 21 2.985 20.8293 2.591 20.4878C2.197 20.1463 2 19.7393 2 19.2667Z" fill="#202128"/>
</g>
</svg>
