<svg width="61" height="60" viewBox="0 0 61 60" fill="none" xmlns="http://www.w3.org/2000/svg">
<path d="M53.4228 25.2402C54.2194 25.2402 54.8652 24.5944 54.8652 23.7978C54.8652 23.0012 54.2194 22.3555 53.4228 22.3555C52.6262 22.3555 51.9805 23.0012 51.9805 23.7978C51.9805 24.5944 52.6262 25.2402 53.4228 25.2402Z" fill="#F9FAFB"/>
<path d="M30.5015 55.5196C44.6611 55.5196 56.1397 51.0166 56.1397 45.4619C56.1397 39.9073 44.6611 35.4043 30.5015 35.4043C16.3419 35.4043 4.86328 39.9073 4.86328 45.4619C4.86328 51.0166 16.3419 55.5196 30.5015 55.5196Z" fill="#F9FAFB"/>
<path d="M29.675 9.24609L28.6097 15.9239H21.6875L29.675 9.24609Z" fill="#D0D5DD"/>
<path d="M28.6099 16.0802H21.6877C21.6217 16.0802 21.5634 16.0393 21.5405 15.9775C21.5183 15.9156 21.537 15.8462 21.587 15.8045L29.5745 9.12606C29.6245 9.08439 29.6954 9.07815 29.7516 9.11009C29.8085 9.14203 29.8391 9.20592 29.8287 9.27051L28.7634 15.949C28.7523 16.0247 28.687 16.0802 28.6099 16.0802ZM22.1183 15.7677H28.4766L29.4551 9.6337L22.1183 15.7677Z" fill="#F9FAFB"/>
<path d="M30.3124 21.7961C30.2645 21.7961 30.2166 21.7738 30.1861 21.7322L29.7645 21.1572C29.7173 21.0926 29.7263 21.0023 29.7861 20.9481C29.8458 20.8947 29.9368 20.8947 29.9958 20.9495C29.9986 20.9523 30.002 20.9551 30.0048 20.9586C30.0076 20.9613 30.0104 20.9648 30.0124 20.9676C30.0194 20.9759 30.027 20.987 30.0347 20.9974L30.4381 21.5474C30.4888 21.6169 30.4743 21.7148 30.4048 21.7655C30.377 21.7863 30.3451 21.7961 30.3124 21.7961Z" fill="#F9FAFB"/>
<mask id="mask0_379_11391" style="mask-type:luminance" maskUnits="userSpaceOnUse" x="29" y="20" width="2" height="2">
<path d="M30.3124 21.7941C30.2645 21.7941 30.2166 21.7719 30.1861 21.7302L29.7645 21.1552C29.7173 21.0906 29.7263 21.0003 29.7861 20.9462C29.8458 20.8927 29.9368 20.8927 29.9958 20.9476C29.9986 20.9503 30.002 20.9531 30.0048 20.9566C30.0076 20.9594 30.0104 20.9628 30.0124 20.9656C30.0194 20.974 30.027 20.9851 30.0347 20.9955L30.4381 21.5455C30.4888 21.6149 30.4743 21.7128 30.4048 21.7635C30.377 21.7844 30.3451 21.7941 30.3124 21.7941Z" fill="white"/>
</mask>
<g mask="url(#mask0_379_11391)">
<path d="M30.2222 21.4807L31.9736 23.8682C31.8694 23.7259 31.7583 23.5877 31.6403 23.453C30.3451 21.9773 28.4569 21.2391 26.4514 21.2391C25.5812 21.2391 24.6896 21.378 23.8139 21.6557L22.0625 19.2682C22.9382 18.9905 23.8299 18.8516 24.7 18.8516C26.7056 18.8516 28.5938 19.5898 29.8889 21.0655C30.0069 21.2002 30.1181 21.3384 30.2222 21.4807Z" fill="#667185"/>
<path d="M31.9746 24.0245C31.9267 24.0245 31.8788 24.0023 31.8482 23.9606C31.7469 23.8217 31.6371 23.6856 31.5232 23.5557C30.3003 22.1627 28.4996 21.3953 26.4517 21.3953C25.5885 21.3953 24.7177 21.5328 23.8614 21.8043C23.7976 21.8245 23.7281 21.8016 23.6878 21.7481L21.9364 19.3606C21.9066 19.3203 21.8983 19.2675 21.9142 19.2196C21.9295 19.1717 21.9677 19.1342 22.0156 19.1189C22.9024 18.8377 23.8052 18.6953 24.7003 18.6953C26.8392 18.6953 28.7239 19.5002 30.0066 20.962C30.1267 21.0988 30.2413 21.2425 30.3489 21.3884L32.0989 23.7745C32.0996 23.7752 32.0996 23.7759 32.1003 23.7759C32.151 23.8453 32.1364 23.9432 32.067 23.9946C32.0392 24.0148 32.0073 24.0245 31.9746 24.0245ZM26.4524 21.0828C28.0559 21.0828 29.5163 21.5356 30.6878 22.378L30.0976 21.5731C29.9962 21.4342 29.8864 21.2981 29.7726 21.1682C28.5496 19.7752 26.7489 19.0078 24.701 19.0078C23.908 19.0078 23.108 19.1238 22.3198 19.3536L23.8746 21.4738C24.7267 21.2141 25.5934 21.0828 26.4524 21.0828Z" fill="#F9FAFB"/>
</g>
<path d="M21.0501 32.5108C21.0071 32.5108 20.9647 32.4934 20.9335 32.4587L20.9092 32.4309C20.8286 32.3385 20.7515 32.2427 20.68 32.1455L18.9286 29.758C18.8779 29.6885 18.8925 29.5906 18.9619 29.5399C19.0314 29.4892 19.1293 29.5038 19.1807 29.5733L19.1821 29.5753C19.248 29.6649 19.3189 29.7531 19.3932 29.8378L19.4154 29.8628C19.4189 29.867 19.4224 29.8705 19.4251 29.8747L21.1765 32.2622C21.2258 32.3295 21.214 32.4233 21.1487 32.476C21.1196 32.4997 21.0842 32.5108 21.0501 32.5108Z" fill="#F9FAFB"/>
<mask id="mask1_379_11391" style="mask-type:luminance" maskUnits="userSpaceOnUse" x="18" y="29" width="4" height="4">
<path d="M21.0501 32.5088C21.0071 32.5088 20.9647 32.4915 20.9335 32.4567L20.9092 32.4289C20.8286 32.3366 20.7515 32.2408 20.68 32.1435L18.9286 29.756C18.8779 29.6866 18.8925 29.5887 18.9619 29.538C19.0314 29.4873 19.1293 29.5019 19.1807 29.5713L19.1821 29.5734C19.248 29.663 19.3189 29.7512 19.3932 29.8359L19.4154 29.8609C19.4189 29.8651 19.4224 29.8685 19.4251 29.8727L21.1765 32.2602C21.2258 32.3276 21.214 32.4213 21.1487 32.4741C21.1196 32.4977 21.0842 32.5088 21.0501 32.5088Z" fill="white"/>
</mask>
<g mask="url(#mask1_379_11391)">
<g opacity="0.6">
<path d="M19.4262 30.1016L21.1776 32.4891C21.1262 32.4363 21.0755 32.3821 21.0269 32.3266C20.9484 32.2377 20.8748 32.1453 20.8061 32.0516L19.0547 29.6641C19.1234 29.7578 19.1971 29.8502 19.2755 29.9391C19.3241 29.9946 19.3748 30.0488 19.4262 30.1016Z" fill="#667185"/>
<path d="M21.1779 32.6449C21.1369 32.6449 21.0967 32.629 21.0661 32.5977C21.0119 32.5428 20.9592 32.4859 20.9092 32.4289C20.8286 32.3373 20.7515 32.2414 20.68 32.1435L18.9286 29.756C18.8779 29.6866 18.8925 29.5887 18.9619 29.538C19.0314 29.4873 19.1293 29.5019 19.1807 29.5713L19.1821 29.5734C19.248 29.663 19.3189 29.7512 19.3932 29.8359C19.4397 29.8887 19.4883 29.9415 19.5383 29.9921C19.5439 29.9977 19.548 30.0033 19.5529 30.0088L21.3043 32.3963C21.3529 32.4623 21.3418 32.5546 21.2793 32.6081C21.2501 32.6331 21.214 32.6449 21.1779 32.6449Z" fill="#F9FAFB"/>
</g>
</g>
<path d="M21.1765 32.6496C21.1356 32.6496 21.0953 32.6337 21.0647 32.6024C21.0196 32.5566 20.9751 32.5094 20.9321 32.4608C20.9307 32.4587 20.9286 32.4573 20.9272 32.4552C20.9092 32.433 20.8883 32.4038 20.8689 32.3767L20.8474 32.3469L19.171 30.0614C19.1217 29.9941 19.1335 29.9003 19.1988 29.8476C19.2633 29.7948 19.3578 29.8024 19.4133 29.8649C19.4536 29.9094 19.4946 29.9531 19.5363 29.9962C19.5411 30.0017 19.546 30.0073 19.5508 30.0128L21.3022 32.4003C21.3508 32.4663 21.3397 32.5587 21.2772 32.6121C21.2481 32.6378 21.2126 32.6496 21.1765 32.6496Z" fill="#F9FAFB"/>
<mask id="mask2_379_11391" style="mask-type:luminance" maskUnits="userSpaceOnUse" x="19" y="29" width="3" height="4">
<path d="M21.1765 32.6496C21.1356 32.6496 21.0953 32.6337 21.0647 32.6024C21.0196 32.5566 20.9751 32.5094 20.9321 32.4608C20.9307 32.4587 20.9286 32.4573 20.9272 32.4552C20.9092 32.433 20.8883 32.4038 20.8689 32.3767L20.8474 32.3469L19.171 30.0614C19.1217 29.9941 19.1335 29.9003 19.1988 29.8476C19.2633 29.7948 19.3578 29.8024 19.4133 29.8649C19.4536 29.9094 19.4946 29.9531 19.5363 29.9962C19.5411 30.0017 19.546 30.0073 19.5508 30.0128L21.3022 32.4003C21.3508 32.4663 21.3397 32.5587 21.2772 32.6121C21.2481 32.6378 21.2126 32.6496 21.1765 32.6496Z" fill="white"/>
</mask>
<g mask="url(#mask2_379_11391)">
<g opacity="0.6">
<path d="M19.4262 30.1055L21.1776 32.493C21.1262 32.4402 21.0755 32.386 21.0269 32.3305C20.9484 32.2416 20.8748 32.1492 20.8061 32.0555L19.0547 29.668C19.1234 29.7617 19.1971 29.8541 19.2755 29.943C19.3241 29.9985 19.3748 30.0527 19.4262 30.1055Z" fill="#667185"/>
<path d="M21.1779 32.6488C21.1369 32.6488 21.0967 32.6329 21.0661 32.6016C21.0119 32.5467 20.9592 32.4898 20.9092 32.4329C20.8286 32.3412 20.7515 32.2454 20.68 32.1474L18.9286 29.7599C18.8779 29.6905 18.8925 29.5926 18.9619 29.5419C19.0314 29.4912 19.1293 29.5058 19.1807 29.5752L19.1821 29.5773C19.248 29.6669 19.3189 29.7551 19.3932 29.8398C19.4397 29.8926 19.4883 29.9454 19.5383 29.9961C19.5439 30.0016 19.548 30.0072 19.5529 30.0127L21.3043 32.4002C21.3529 32.4662 21.3418 32.5586 21.2793 32.612C21.2501 32.637 21.214 32.6488 21.1779 32.6488Z" fill="#F9FAFB"/>
</g>
</g>
<path d="M28.5146 27.1732C28.4729 27.3051 28.425 27.4378 28.3723 27.5683C28.2591 27.8489 28.1216 28.1246 27.9598 28.3919C27.882 28.5204 27.7993 28.6475 27.7098 28.7725C27.407 29.1996 27.0389 29.601 26.6084 29.96C25.4368 30.9398 24.0285 31.4287 22.6979 31.4287C21.3681 31.4287 20.116 30.9392 19.2577 29.96C17.5389 28.0017 18.0452 24.828 20.3875 22.8711C21.5591 21.8912 22.9674 21.4023 24.2979 21.4023C25.6278 21.4023 26.8799 21.8919 27.7382 22.8711C27.7632 22.8996 27.7868 22.9273 27.8091 22.9558C27.9209 23.0905 28.0236 23.2315 28.1153 23.3753C28.2813 23.6364 28.4125 23.9107 28.5139 24.1982C28.566 24.344 28.6091 24.4933 28.6431 24.6447C28.8313 25.4544 28.7834 26.3266 28.5146 27.1732Z" fill="#E4E7EC"/>
<path d="M28.6407 24.6445H24.0601C23.5768 24.6445 23.2442 24.2674 23.3192 23.8008C23.3935 23.3341 23.8455 22.957 24.3296 22.957H27.8073C27.9192 23.0918 28.0219 23.2327 28.1136 23.3765C28.2796 23.6376 28.4108 23.9119 28.5122 24.1994C28.5636 24.3438 28.6067 24.4931 28.6407 24.6445Z" fill="#98A2B3"/>
<path d="M28.5134 27.1726C28.4717 27.3045 28.4238 27.4372 28.371 27.5677C28.2578 27.8483 28.1203 28.124 27.9585 28.3913C27.8808 28.5198 27.7981 28.6469 27.7085 28.7719H23.3558C22.8967 28.7719 22.5842 28.4135 22.6544 27.9719C22.7252 27.5302 23.153 27.1719 23.6106 27.1719H28.5134V27.1726Z" fill="#98A2B3"/>
<path d="M29.8137 9.13086H49.1366L48.8415 10.9822L43.7637 42.8198H19.3179H17.3984L18.9339 33.1906C19.945 33.7142 21.0991 33.976 22.2943 33.976C23.9005 33.976 25.5818 33.5031 27.095 32.5566H40.6436C40.879 32.5566 41.0977 32.3732 41.1345 32.1461C41.1707 31.9204 41.0096 31.7371 40.7748 31.7371H28.2179C29.3651 30.7704 30.2158 29.6093 30.7519 28.3829H41.3095C41.545 28.3829 41.7637 28.1996 41.7998 27.9739C41.8359 27.7475 41.6748 27.5635 41.4401 27.5635H31.0616C31.4179 26.4461 31.5165 25.2982 31.347 24.2093H41.9748C42.2102 24.2093 42.429 24.026 42.4651 23.8003C42.5012 23.5739 42.3401 23.3899 42.1054 23.3899H31.1644C30.9172 22.5475 30.4957 21.7586 29.8922 21.0691C28.5971 19.5934 26.7089 18.8552 24.7033 18.8552C23.5089 18.8552 22.2734 19.117 21.0957 19.6399L21.688 15.9239H28.6102L29.6755 9.24683L29.8137 9.13086ZM39.9783 36.7295C40.2137 36.7295 40.4325 36.5461 40.4693 36.3191C40.5054 36.0934 40.3443 35.91 40.1095 35.91H23.6269C23.3929 35.91 23.1734 36.0934 23.1373 36.3191C23.1012 36.5454 23.2623 36.7295 23.4964 36.7295H39.9783ZM42.6408 20.0364C42.8762 20.0364 43.095 19.8531 43.1311 19.6274C43.1672 19.401 43.0061 19.217 42.7714 19.217H31.5984C31.3637 19.217 31.145 19.4003 31.1089 19.6274C31.0727 19.8531 31.2325 20.0364 31.4679 20.0364H42.6408Z" fill="#F7F9FC"/>
<path d="M43.7635 42.9754H17.3982C17.3524 42.9754 17.3093 42.9553 17.2795 42.9206C17.2496 42.8858 17.2371 42.84 17.2441 42.7949L18.7802 33.1657C18.7878 33.1164 18.8191 33.0734 18.8642 33.0511C18.9086 33.0282 18.9621 33.0289 19.0066 33.0518C19.9774 33.5546 21.1142 33.8199 22.2948 33.8199C23.9218 33.8199 25.5531 33.3372 27.0121 32.424C27.0371 32.4088 27.0656 32.4004 27.0948 32.4004H40.6434C40.8017 32.4004 40.9559 32.2727 40.9795 32.122C40.9892 32.0609 40.9753 32.0039 40.9399 31.9622C40.9024 31.9178 40.8434 31.8935 40.7739 31.8935H28.2177C28.1517 31.8935 28.0934 31.8525 28.0711 31.7907C28.0489 31.7289 28.067 31.6602 28.117 31.6178C29.2045 30.7011 30.0663 29.5609 30.6086 28.3206C30.6336 28.2636 30.6899 28.2268 30.7517 28.2268H41.3093C41.4677 28.2268 41.6218 28.0997 41.6455 27.949C41.6552 27.8872 41.6413 27.8303 41.6059 27.7886C41.5684 27.7442 41.5093 27.7199 41.4399 27.7199H31.0614C31.0114 27.7199 30.9649 27.6963 30.935 27.656C30.9059 27.6157 30.8975 27.5636 30.9121 27.5164C31.26 26.4254 31.3566 25.29 31.192 24.2338C31.185 24.1886 31.1982 24.1428 31.2274 24.1081C31.2566 24.0734 31.3003 24.0532 31.3461 24.0532H41.9739C42.1323 24.0532 42.2864 23.9261 42.31 23.7754C42.3198 23.7136 42.3059 23.6567 42.2705 23.615C42.233 23.5706 42.1739 23.5463 42.1045 23.5463H31.1642C31.0948 23.5463 31.0336 23.5004 31.0142 23.4338C30.767 22.59 30.3496 21.8289 29.7739 21.172C28.551 19.7789 26.7503 19.0115 24.7024 19.0115C23.5191 19.0115 22.2934 19.2782 21.1579 19.7831C21.1059 19.806 21.0448 19.799 20.9989 19.7643C20.9531 19.7296 20.9309 19.6727 20.9399 19.6157L21.5323 15.8997C21.5441 15.824 21.61 15.7678 21.6864 15.7678H28.4753L29.5191 9.22196C29.5246 9.18516 29.5441 9.15113 29.5725 9.12682L29.7114 9.00946C29.7399 8.98585 29.7753 8.97266 29.8121 8.97266H49.1364C49.1823 8.97266 49.2253 8.9928 49.2552 9.02752C49.285 9.06224 49.2975 9.10807 49.2906 9.15321L43.9177 42.8421C43.9059 42.9199 43.8406 42.9754 43.7635 42.9754ZM17.5809 42.6629H43.6302L48.9531 9.28655H29.8704L29.8198 9.3296L28.7642 15.9497C28.7524 16.0254 28.6864 16.0817 28.61 16.0817H21.8211L21.2941 19.3865C22.3948 18.9365 23.567 18.6997 24.7031 18.6997C26.842 18.6997 28.7267 19.5046 30.0093 20.9664C30.5892 21.6289 31.0163 22.3907 31.2802 23.2338H42.1059C42.2656 23.2338 42.4128 23.299 42.5093 23.4122C42.6052 23.5247 42.6448 23.6713 42.6198 23.8247C42.5711 24.1282 42.2878 24.3657 41.9746 24.3657H31.5267C31.6531 25.3511 31.5656 26.3949 31.2718 27.4074H41.4399C41.5996 27.4074 41.7468 27.4727 41.8434 27.5859C41.9392 27.6984 41.9788 27.8449 41.9538 27.9984C41.9052 28.3018 41.6218 28.5393 41.3086 28.5393H30.8531C30.3441 29.6657 29.5816 30.7081 28.6316 31.581H40.7739C40.9336 31.581 41.0809 31.6463 41.1774 31.7595C41.2732 31.872 41.3121 32.0178 41.2878 32.1713C41.2392 32.4747 40.9559 32.7129 40.6427 32.7129H27.1392C25.6399 33.6421 23.9656 34.1324 22.2941 34.1324C21.1406 34.1324 20.026 33.8886 19.0545 33.4247L17.5809 42.6629ZM39.9781 36.8859H23.4961C23.3371 36.8859 23.1899 36.8213 23.0934 36.7074C22.9975 36.5949 22.9579 36.4484 22.9829 36.2942C23.0316 35.9907 23.3142 35.7532 23.6267 35.7532H40.1086C40.2684 35.7532 40.4156 35.8185 40.5121 35.9317C40.608 36.0442 40.6468 36.19 40.6225 36.3435C40.5746 36.6477 40.2913 36.8859 39.9781 36.8859ZM23.6267 36.0664C23.4691 36.0664 23.3156 36.1935 23.2913 36.3442C23.2816 36.406 23.2954 36.4636 23.3309 36.5053C23.3684 36.5497 23.4274 36.574 23.4955 36.574H39.9774C40.1357 36.574 40.2899 36.4463 40.3135 36.2956C40.3232 36.2345 40.3093 36.1775 40.2739 36.1359C40.2364 36.0914 40.1774 36.0671 40.108 36.0671H23.6267V36.0664ZM42.6406 20.1928H31.4677C31.3079 20.1928 31.1614 20.1282 31.0649 20.015C30.9691 19.9025 30.9302 19.7567 30.9545 19.6032C31.0031 19.299 31.2857 19.0615 31.5982 19.0615H42.7711C42.9309 19.0615 43.0781 19.1268 43.1746 19.24C43.2704 19.3525 43.31 19.499 43.285 19.6525C43.2371 19.9553 42.9538 20.1928 42.6406 20.1928ZM31.5982 19.3734C31.4406 19.3734 31.2871 19.5011 31.2628 19.6518C31.2531 19.7136 31.267 19.7706 31.3024 19.8115C31.3399 19.8553 31.3982 19.8796 31.4677 19.8796H42.6406C42.7989 19.8796 42.9531 19.7525 42.9767 19.6018C42.9864 19.54 42.9725 19.4831 42.9371 19.4414C42.8996 19.397 42.8406 19.3727 42.7711 19.3727H31.5982V19.3734Z" fill="#F9FAFB"/>
<g opacity="0.5">
<g opacity="0.6">
<path d="M20.6016 22.7266L20.4357 23.7689C20.41 23.7884 20.3843 23.8078 20.3593 23.8293C19.7947 24.3002 19.6732 25.0655 20.0871 25.537C20.1051 25.5578 20.1246 25.578 20.1447 25.5967L19.4253 30.1064C19.3739 30.0536 19.3232 29.9995 19.2746 29.9439C18.4204 28.9696 18.119 27.6925 18.3232 26.4161C18.5266 25.1391 19.235 23.8627 20.4003 22.8891C20.4655 22.8335 20.5336 22.7793 20.6016 22.7266Z" fill="#D0D5DD"/>
</g>
</g>
<path d="M41.4421 27.5586C41.6775 27.5586 41.8379 27.7419 41.8018 27.969C41.7657 28.1947 41.5463 28.378 41.3115 28.378H30.7539C30.8727 28.1079 30.9761 27.8343 31.0629 27.5586H41.4421Z" fill="#D0D5DD"/>
<path d="M41.3112 28.5355H30.7535C30.7007 28.5355 30.6514 28.5092 30.623 28.4647C30.5945 28.4203 30.5896 28.3647 30.6105 28.3168C30.7278 28.0487 30.8299 27.7786 30.9139 27.5133C30.9341 27.448 30.9945 27.4043 31.0632 27.4043H41.4417C41.6014 27.4043 41.7487 27.4696 41.8452 27.5828C41.941 27.6953 41.9806 27.8418 41.9556 27.9953C41.9077 28.298 41.6244 28.5355 41.3112 28.5355ZM30.9896 28.223H41.3112C41.4695 28.223 41.6237 28.096 41.6473 27.9453C41.657 27.8835 41.6431 27.8265 41.6077 27.7849C41.5702 27.7404 41.5112 27.7161 41.4417 27.7161H31.1764C31.1209 27.8842 31.0584 28.0536 30.9896 28.223Z" fill="#D0D5DD"/>
<path d="M40.7743 31.7344C41.0097 31.7344 41.1701 31.9177 41.134 32.1434C41.0979 32.3698 40.8785 32.5538 40.6431 32.5538H27.0938C27.4694 32.3191 27.8347 32.0545 28.1854 31.7615C28.1958 31.7524 28.2069 31.7434 28.2174 31.7351H40.7743V31.7344Z" fill="#D0D5DD"/>
<path d="M40.643 32.7094H27.0937C27.0242 32.7094 26.9624 32.6635 26.9437 32.5962C26.9242 32.5295 26.952 32.4573 27.011 32.4205C27.3839 32.1872 27.745 31.9247 28.0853 31.6406L28.1145 31.6163C28.143 31.5927 28.1805 31.5781 28.2173 31.5781H40.7742C40.9339 31.5781 41.0812 31.6434 41.1777 31.7566C41.2735 31.8691 41.3124 32.0149 41.2881 32.1684C41.2395 32.4712 40.9568 32.7094 40.643 32.7094ZM27.6117 32.3969H40.643C40.8013 32.3969 40.9555 32.2691 40.9791 32.1184C40.9888 32.0573 40.9749 32.0003 40.9395 31.9587C40.902 31.9142 40.843 31.8899 40.7735 31.8899H28.2735C28.061 32.0677 27.8395 32.2372 27.6117 32.3969Z" fill="#D0D5DD"/>
<path d="M50.7137 11.277L50.4665 12.8297L50.4186 13.129L45.3887 44.6658H18.7561L17.3984 42.8151H43.7637L48.8415 10.979L49.1373 9.12695L50.7137 11.277Z" fill="#E4E7EC"/>
<path d="M45.3885 44.8222H18.7565C18.7065 44.8222 18.66 44.7986 18.6308 44.7584L17.2725 42.9077C17.2378 42.8604 17.2322 42.7972 17.2593 42.7445C17.2857 42.6917 17.3399 42.6591 17.3989 42.6591H43.6308L48.6878 10.9542L48.9836 9.10211C48.9933 9.03961 49.0399 8.98961 49.101 8.97503C49.1628 8.96044 49.2267 8.98336 49.2635 9.03475L50.8399 11.1847C50.8649 11.2181 50.8746 11.2604 50.8683 11.3014L50.5732 13.1535L45.5426 44.691C45.5301 44.7667 45.4649 44.8222 45.3885 44.8222ZM18.835 44.5097H45.2544L50.2642 13.1042L50.5489 11.3167L49.2322 9.52086L48.9954 11.0035L43.9176 42.8396C43.9058 42.9153 43.8399 42.9716 43.7635 42.9716H17.7065L18.835 44.5097Z" fill="#F9FAFB"/>
<path d="M47.0151 46.5176L48.7665 48.9051H22.3998L20.6484 46.5176H47.0151Z" fill="#D0D5DD"/>
<path d="M48.7662 49.0613H22.3996C22.3496 49.0613 22.303 49.0377 22.2739 48.9974L20.5225 46.6099C20.4878 46.5627 20.4822 46.4995 20.5093 46.4467C20.5357 46.394 20.5899 46.3613 20.6489 46.3613H47.0155C47.0655 46.3613 47.1121 46.3849 47.1412 46.4252L48.8926 48.8127C48.9274 48.8599 48.9329 48.9231 48.9058 48.9759C48.8787 49.028 48.8253 49.0613 48.7662 49.0613ZM22.4787 48.7488H48.4579L46.9357 46.6738H20.9565L22.4787 48.7488Z" fill="#F9FAFB"/>
<path d="M52.388 12.8301L47.0151 46.5183H20.6484L20.9436 44.6662H45.3908L50.4679 12.8301H52.388Z" fill="#F7F9FC"/>
<path d="M47.0149 46.6745H20.6482C20.6024 46.6745 20.5593 46.6544 20.5295 46.6197C20.4996 46.5849 20.4871 46.5391 20.4941 46.494L20.7892 44.6426C20.801 44.5669 20.867 44.5106 20.9434 44.5106H45.2573L50.3135 12.8058C50.3253 12.7301 50.3913 12.6738 50.4677 12.6738H52.3878C52.4336 12.6738 52.4767 12.694 52.5066 12.7287C52.5364 12.7634 52.5489 12.8092 52.542 12.8544L47.1691 46.5426C47.1573 46.6183 47.092 46.6745 47.0149 46.6745ZM20.8316 46.362H46.8816L52.2045 12.9863H50.601L45.5448 44.6912C45.5329 44.7669 45.467 44.8231 45.3906 44.8231H21.0767L20.8316 46.362Z" fill="#F9FAFB"/>
<path d="M52.3885 12.8301L54.1399 15.2176L48.767 48.9058L47.0156 46.5183L52.3885 12.8301Z" fill="#E4E7EC"/>
<path d="M48.7668 49.0622C48.7175 49.0622 48.6709 49.0393 48.6411 48.9983L46.8897 46.6108C46.8647 46.5774 46.855 46.5351 46.8612 46.4934L52.2341 12.8052C52.2439 12.7427 52.2904 12.6927 52.3515 12.6782C52.4133 12.6636 52.4772 12.6865 52.514 12.7379L54.2654 15.1254C54.2904 15.1587 54.3001 15.2011 54.2939 15.2427L48.9209 48.9309C48.9112 48.9934 48.8647 49.0434 48.8036 49.058C48.7911 49.0608 48.7786 49.0622 48.7668 49.0622ZM47.18 46.4781L48.6709 48.5115L53.9744 15.2573L52.4834 13.224L47.18 46.4781Z" fill="#F9FAFB"/>
<path d="M17.9936 32.5918L8.89497 40.198C8.87344 40.2161 8.85122 40.2321 8.82899 40.2487C8.81858 40.2564 8.80885 40.264 8.79844 40.2717C8.78038 40.2842 8.76163 40.2953 8.74358 40.3071C8.73038 40.3154 8.71719 40.3244 8.70399 40.3321C8.69427 40.3376 8.68385 40.3425 8.67413 40.348C8.64983 40.3612 8.62483 40.3744 8.59983 40.3855C8.5908 40.3897 8.58177 40.3932 8.57274 40.3967C8.53941 40.4112 8.50608 40.4237 8.47274 40.4349C8.45747 40.4404 8.44149 40.4453 8.42552 40.4501C8.41302 40.4536 8.39983 40.4578 8.38733 40.4605C8.36719 40.4654 8.34705 40.4703 8.32691 40.4744C8.31441 40.4772 8.30191 40.4793 8.2901 40.4814C8.26788 40.4849 8.24635 40.4876 8.22413 40.4904C8.21371 40.4918 8.2033 40.4932 8.19288 40.4939C8.16094 40.4967 8.1283 40.498 8.09635 40.498C7.82413 40.498 7.56858 40.398 7.39288 40.198L7.06858 39.8286C7.0526 39.8105 7.03802 39.7918 7.02344 39.7724L8.77483 42.1599C8.78872 42.1793 8.80399 42.198 8.81997 42.2161L9.14427 42.5855C9.31996 42.7855 9.57552 42.8855 9.84774 42.8855C9.87969 42.8855 9.91163 42.8842 9.94427 42.8814C9.95469 42.8807 9.9651 42.8786 9.97552 42.8779C9.99774 42.8751 10.0193 42.8724 10.0415 42.8689C10.054 42.8668 10.0665 42.864 10.0783 42.8619C10.0984 42.8578 10.1186 42.8536 10.1387 42.848C10.1519 42.8446 10.1644 42.8411 10.1769 42.8376C10.1859 42.8349 10.1957 42.8328 10.2047 42.83C10.2109 42.8279 10.2172 42.8251 10.2241 42.8224C10.2582 42.8112 10.2915 42.798 10.3241 42.7842C10.3304 42.7814 10.3373 42.7793 10.3443 42.7765C10.347 42.7751 10.3491 42.7737 10.3519 42.773C10.3769 42.7612 10.4012 42.7487 10.4262 42.7355C10.4352 42.7307 10.4443 42.7272 10.4533 42.7217C10.4547 42.721 10.4554 42.7203 10.4561 42.7196C10.4693 42.7119 10.4825 42.7029 10.4957 42.6946C10.5123 42.6842 10.5297 42.6744 10.5464 42.6626C10.5477 42.6619 10.5491 42.6605 10.5505 42.6592C10.5609 42.6522 10.5707 42.6439 10.5811 42.6362C10.5977 42.6237 10.6151 42.6119 10.6311 42.5987C10.6366 42.5946 10.6415 42.5904 10.647 42.5855L19.7457 34.9793L17.9936 32.5918Z" fill="#667185"/>
<path d="M9.84735 43.0416C9.51819 43.0416 9.22652 42.9159 9.02652 42.6881L8.70222 42.3186C8.68347 42.2971 8.66541 42.2749 8.64874 42.252L6.89805 39.8659C6.89805 39.8652 6.89735 39.8652 6.89735 39.8645C6.84666 39.795 6.86124 39.6971 6.93069 39.6464C7.00013 39.5957 7.09805 39.6103 7.14874 39.6798L7.14944 39.6812C7.16055 39.6964 7.17235 39.711 7.18485 39.7256L7.50916 40.095C7.64874 40.2541 7.85708 40.3416 8.09527 40.3416C8.12305 40.3416 8.15013 40.3402 8.17791 40.3374L8.20569 40.3339C8.22444 40.3318 8.24319 40.3298 8.26263 40.3263C8.27027 40.3249 8.2786 40.3235 8.28624 40.3214L8.29527 40.3193C8.31263 40.3159 8.33069 40.3117 8.34805 40.3075C8.35916 40.3048 8.37097 40.3013 8.38208 40.2985C8.39597 40.2943 8.40916 40.2902 8.42305 40.2853C8.45222 40.2756 8.48138 40.2645 8.51055 40.252L8.53416 40.2423C8.55638 40.2318 8.57791 40.2207 8.59944 40.2089L8.62583 40.195C8.63138 40.1916 8.63763 40.1881 8.64319 40.1839L8.67235 40.1652C8.68485 40.1575 8.69666 40.1499 8.70916 40.1416C8.71333 40.1388 8.71749 40.1353 8.72166 40.1318L8.7418 40.1166C8.75916 40.1034 8.77721 40.0909 8.79388 40.0763L17.8925 32.47C17.9258 32.4423 17.9682 32.4298 18.0112 32.4346C18.0543 32.4395 18.0925 32.4624 18.1182 32.4971L19.8696 34.8846C19.9182 34.9513 19.9071 35.0443 19.8439 35.0971L10.7286 42.72C10.714 42.7318 10.6994 42.743 10.6842 42.7534L10.664 42.768C10.6557 42.7742 10.6474 42.7805 10.639 42.7867C10.6203 42.7999 10.6057 42.8089 10.5911 42.818L10.5654 42.8339C10.5557 42.8402 10.546 42.8464 10.5362 42.852C10.5335 42.8541 10.5307 42.8555 10.5279 42.8568C10.5217 42.8603 10.5133 42.8645 10.5057 42.868L10.4994 42.8707C10.4717 42.8853 10.4446 42.8999 10.4161 42.9131C10.4168 42.9131 10.4119 42.9152 10.4078 42.9173C10.4008 42.92 10.3932 42.9235 10.3855 42.9263C10.348 42.9423 10.3105 42.9568 10.273 42.9693C10.2668 42.9721 10.2585 42.9749 10.2508 42.9777C10.2439 42.9798 10.2355 42.9818 10.2279 42.9839L10.2203 42.986C10.2057 42.9902 10.1911 42.9943 10.1765 42.9978C10.1536 43.0034 10.1314 43.0089 10.1085 43.0131L10.1008 43.0145C10.089 43.0166 10.0779 43.0193 10.0661 43.0214C10.0411 43.0256 10.0161 43.0291 9.9918 43.0318L9.98277 43.0332C9.97374 43.0346 9.96541 43.0353 9.95638 43.036C9.91749 43.0402 9.88208 43.0416 9.84735 43.0416ZM7.84597 40.6291L8.90152 42.068C8.91263 42.0832 8.92513 42.0985 8.93763 42.1131L9.26194 42.4825C9.41749 42.6603 9.66194 42.7485 9.93069 42.7256L9.95777 42.7221C9.97652 42.72 9.99597 42.718 10.0147 42.7145C10.0224 42.7131 10.0307 42.7117 10.0383 42.7096L10.0467 42.7082C10.0647 42.7048 10.0821 42.7006 10.0994 42.6964C10.1105 42.6936 10.1217 42.6902 10.1335 42.6874L10.1571 42.6811C10.1612 42.6791 10.1682 42.6763 10.1744 42.6742C10.2036 42.6645 10.2335 42.6534 10.2626 42.6402C10.2682 42.6374 10.2744 42.6353 10.2807 42.6332L10.2855 42.6311C10.3085 42.6207 10.33 42.6089 10.3522 42.5971C10.3578 42.5936 10.364 42.5909 10.3696 42.5881L10.3744 42.5853C10.3758 42.5839 10.3779 42.5832 10.3793 42.5825C10.3842 42.5798 10.3904 42.5756 10.3967 42.5721L10.4293 42.552C10.439 42.5464 10.4487 42.5402 10.4578 42.5339C10.4661 42.5277 10.4703 42.5249 10.4744 42.5214L10.5008 42.5013C10.5112 42.4936 10.5217 42.486 10.5321 42.4777L10.546 42.4666L19.5328 34.9541L17.9668 32.8187L8.99527 40.318C8.97305 40.336 8.95083 40.3534 8.92791 40.37L8.91263 40.3818C8.9043 40.3881 8.89666 40.3943 8.88833 40.3999C8.87166 40.411 8.85499 40.4214 8.83833 40.4318L8.81402 40.4471C8.8036 40.4541 8.79319 40.4603 8.78277 40.4666C8.77444 40.4714 8.7661 40.4756 8.75777 40.4798L8.74874 40.4846C8.72166 40.4992 8.69388 40.5138 8.6661 40.527C8.65847 40.5305 8.65083 40.5339 8.64249 40.5367L8.63485 40.5402C8.59805 40.5562 8.56055 40.5707 8.52235 40.5832C8.50499 40.5895 8.48694 40.595 8.46958 40.5999C8.45499 40.6041 8.44041 40.6082 8.42583 40.6117C8.4036 40.6173 8.38069 40.6228 8.35777 40.627L8.35013 40.6284C8.33902 40.6305 8.32722 40.6332 8.3161 40.6346C8.2911 40.6388 8.2668 40.6423 8.2418 40.645L8.23208 40.6464C8.22374 40.6478 8.21472 40.6485 8.20569 40.6492C8.1668 40.6527 8.13069 40.6541 8.09597 40.6541C8.00985 40.6541 7.92583 40.6457 7.84597 40.6291Z" fill="#F9FAFB"/>
<path d="M31.3476 24.2089C31.3045 23.9319 31.2434 23.6576 31.1642 23.3895C30.9177 22.5464 30.4955 21.7582 29.892 21.0687C28.5969 19.593 26.7087 18.8555 24.7031 18.8555C23.508 18.8555 22.2726 19.1166 21.0955 19.6409C20.2941 19.9971 19.5205 20.4735 18.8052 21.0714C15.6462 23.7117 14.7038 27.8228 16.3976 30.7742L7.29758 38.3819C6.8198 38.7805 6.71702 39.4284 7.06702 39.8291L7.39132 40.1985C7.56632 40.3985 7.82327 40.4992 8.0941 40.4992C8.36633 40.4992 8.65452 40.3985 8.89271 40.1985L17.992 32.593C18.2892 32.8187 18.6045 33.0187 18.9344 33.1895C19.9455 33.7124 21.0997 33.9749 22.2948 33.9749C23.9017 33.9749 25.583 33.5027 27.0948 32.5555C27.4712 32.3207 27.8358 32.0562 28.2191 31.736C29.3656 30.7687 30.217 29.6082 30.7531 28.3812C30.8705 28.1124 30.9747 27.8374 31.0615 27.5617C31.4177 26.4464 31.517 25.2971 31.3476 24.2089ZM26.6073 29.9603C25.4358 30.9402 24.0274 31.4291 22.6969 31.4291C21.367 31.4291 20.1149 30.9395 19.2566 29.9603C17.5379 28.002 18.0441 24.8284 20.3865 22.8714C21.558 21.8916 22.9663 21.4027 24.2969 21.4027C25.6267 21.4027 26.8788 21.8923 27.7372 22.8714C27.7622 22.8999 27.7858 22.9277 27.808 22.9562C27.9198 23.0909 28.0226 23.2319 28.1142 23.3756C28.2802 23.6367 28.4115 23.911 28.5129 24.1985C28.5649 24.3444 28.608 24.4937 28.642 24.6451C28.8295 25.4555 28.7823 26.3277 28.5129 27.1735C28.4712 27.3055 28.4233 27.4381 28.3705 27.5687C28.2573 27.8492 28.1198 28.1249 27.958 28.3923C27.8802 28.5207 27.7976 28.6478 27.708 28.7728C27.4066 29.1999 27.0379 29.6013 26.6073 29.9603Z" fill="#98A2B3"/>
<path d="M8.09406 40.6555C7.76489 40.6555 7.47323 40.5298 7.27392 40.3013L6.94962 39.9319C6.77045 39.7263 6.68434 39.4562 6.70656 39.1714C6.73364 38.8312 6.91212 38.4992 7.19753 38.2617L16.1982 30.7374C15.4059 29.286 15.2038 27.5277 15.6302 25.7694C16.0711 23.952 17.1635 22.2409 18.7059 20.9513C19.417 20.3569 20.2003 19.868 21.033 19.4978C22.2066 18.9756 23.476 18.6992 24.7045 18.6992C26.8434 18.6992 28.7281 19.5041 30.0107 20.9659C30.6177 21.6589 31.0566 22.4596 31.3156 23.3457C31.3955 23.6173 31.4586 23.8992 31.5031 24.1846C31.6753 25.2881 31.5739 26.4728 31.2114 27.6096C31.1246 27.8853 31.0191 28.1659 30.8975 28.4437C30.3364 29.7277 29.4448 30.9069 28.3205 31.8555C27.9399 32.1735 27.5663 32.4457 27.1781 32.6874C25.6711 33.6312 23.983 34.1305 22.2955 34.1305C21.0656 34.1305 19.8788 33.8527 18.8635 33.3277C18.5649 33.1735 18.2746 32.993 17.9982 32.7916L8.99267 40.3187C8.73364 40.5353 8.41489 40.6555 8.09406 40.6555ZM24.7038 19.0117C23.5191 19.0117 22.2934 19.2784 21.1593 19.7832C20.3531 20.1416 19.5948 20.6152 18.9059 21.1909C15.8406 23.7527 14.8427 27.7506 16.5336 30.6957C16.5711 30.7617 16.5566 30.845 16.4982 30.8937L7.39753 38.5013C7.1767 38.686 7.03781 38.9388 7.01767 39.1957C7.0017 39.3964 7.06073 39.5846 7.18434 39.7256L7.50864 40.095C7.64823 40.2548 7.85587 40.3423 8.09406 40.3423C8.34128 40.3423 8.58989 40.2485 8.79267 40.0784L17.892 32.4728C17.9482 32.4263 18.0288 32.4242 18.0871 32.4687C18.3781 32.6902 18.6871 32.886 19.0066 33.0506C19.9774 33.5527 21.1149 33.8187 22.2955 33.8187C23.9239 33.8187 25.5552 33.336 27.0121 32.4235C27.3878 32.1888 27.7503 31.9249 28.1191 31.6166C29.2066 30.6999 30.0677 29.5596 30.61 28.3194C30.7274 28.0513 30.8288 27.7812 30.9128 27.5159C31.2607 26.4242 31.358 25.2895 31.1934 24.2332C31.151 23.9617 31.0913 23.693 31.0149 23.4346C30.7691 22.5923 30.3517 21.8312 29.7746 21.1721C28.5524 19.7791 26.751 19.0117 24.7038 19.0117ZM22.6968 31.5853C21.2628 31.5853 19.9989 31.0451 19.1385 30.0631C18.3705 29.1881 18.0003 28.0298 18.0954 26.8006C18.2121 25.293 19.0107 23.8166 20.2857 22.7513C21.4468 21.7805 22.8711 21.2457 24.2968 21.2457C25.7309 21.2457 26.9948 21.786 27.8552 22.768C27.8816 22.7978 27.9066 22.8277 27.9309 22.8582C28.0434 22.9937 28.1503 23.1402 28.2468 23.2909C28.4142 23.5534 28.5538 23.8409 28.6614 24.1451C28.7149 24.2951 28.76 24.4513 28.7955 24.6096C28.9878 25.4395 28.942 26.3423 28.6628 27.2201C28.6191 27.3576 28.5698 27.4944 28.5163 27.627C28.4003 27.9152 28.2579 28.1992 28.0927 28.4728C28.0086 28.611 27.9253 28.7388 27.8364 28.8638C27.5198 29.3103 27.1399 29.7194 26.708 30.0805C25.5468 31.0506 24.1225 31.5853 22.6968 31.5853ZM24.2968 21.5582C22.9448 21.5582 21.5913 22.0673 20.4864 22.9909C19.2753 24.0027 18.517 25.4006 18.4073 26.8249C18.3184 27.9694 18.6621 29.0457 19.3739 29.8569C20.1739 30.7701 21.3545 31.2728 22.6968 31.2728C24.0489 31.2728 25.4024 30.7638 26.5073 29.8402C26.9191 29.4964 27.2802 29.1069 27.5816 28.6826C27.6656 28.5638 27.7455 28.443 27.8253 28.311C27.9816 28.052 28.1163 27.7826 28.2267 27.5096C28.2774 27.3846 28.3239 27.2555 28.3649 27.1256C28.6267 26.3013 28.6705 25.4555 28.4906 24.6791C28.458 24.5326 28.4163 24.3881 28.367 24.2499C28.267 23.9673 28.1378 23.7013 27.9836 23.4589C27.8948 23.3194 27.7955 23.1832 27.6892 23.0555C27.6663 23.027 27.6441 23.0006 27.6211 22.9742C26.8198 22.061 25.6392 21.5582 24.2968 21.5582Z" fill="#F9FAFB"/>
<path d="M22.8888 25.3787C22.8749 25.3392 22.8576 25.3016 22.8339 25.2662C22.8194 25.2419 22.802 25.219 22.7826 25.1968C22.6652 25.0635 22.4944 24.9961 22.3124 24.9961C22.2978 24.9961 22.2832 24.9968 22.268 24.9975C22.0992 25.0072 21.9249 25.0739 21.7777 25.1968C21.5916 25.3523 21.4902 25.5641 21.4846 25.7669C21.4805 25.9128 21.5256 26.0537 21.6235 26.1655C21.7409 26.2989 21.9117 26.3662 22.0937 26.3662C22.2756 26.3662 22.468 26.2996 22.6277 26.1655C22.7034 26.1016 22.7659 26.0294 22.8131 25.951C22.8353 25.9148 22.8534 25.8773 22.8694 25.8385C22.9319 25.6857 22.9395 25.5225 22.8888 25.3787Z" fill="#F7F9FC"/>
<path d="M22.3192 24.1463C22.2949 24.0768 22.2622 24.0109 22.2227 23.9484C22.1956 23.906 22.1664 23.8657 22.1324 23.8268C21.9254 23.5907 21.6234 23.4727 21.3032 23.4727C21.0109 23.4727 20.7039 23.5706 20.4379 23.7664C20.4122 23.7859 20.3865 23.8053 20.3615 23.8261C19.797 24.297 19.6754 25.0622 20.0893 25.5338C20.1081 25.5546 20.1268 25.5747 20.147 25.5935C20.3497 25.7893 20.6261 25.8865 20.9185 25.8865C21.106 25.8865 21.3004 25.8463 21.4859 25.7657C21.6171 25.7088 21.7435 25.631 21.8609 25.5338C21.9942 25.4213 22.1039 25.2935 22.1865 25.156C22.2178 25.1039 22.2456 25.0504 22.2685 24.9963C22.2741 24.9831 22.2796 24.9706 22.2845 24.9574C22.3942 24.6872 22.4074 24.3997 22.3192 24.1463Z" fill="#F7F9FC"/>
<path d="M45.3887 44.6671H18.7561L17.3984 42.8164H43.7637L45.3887 44.6671Z" fill="#D0D5DD"/>
<path d="M45.3885 44.8233H18.7565C18.7065 44.8233 18.66 44.7997 18.6308 44.7595L17.2725 42.9088C17.2378 42.8615 17.2322 42.7983 17.2593 42.7456C17.2857 42.6928 17.3399 42.6602 17.3989 42.6602H43.7642C43.8093 42.6602 43.8517 42.6796 43.8815 42.7136L45.5065 44.5643C45.5468 44.6102 45.5565 44.6761 45.5315 44.7317C45.5051 44.7879 45.4496 44.8233 45.3885 44.8233ZM18.835 44.5108H45.0426L43.6919 42.9727H17.7058L18.835 44.5108Z" fill="#F9FAFB"/>
<path d="M42.105 23.3867C42.3405 23.3867 42.5009 23.5701 42.4648 23.7971C42.4286 24.0228 42.2092 24.2062 41.9745 24.2062H31.3467C31.3036 23.9291 31.2425 23.6541 31.1641 23.3867H42.105Z" fill="#D0D5DD"/>
<path d="M41.9746 24.3624H31.3468C31.2697 24.3624 31.2045 24.3062 31.1927 24.2298C31.151 23.9596 31.0913 23.6909 31.0142 23.4305C31.0003 23.3832 31.0093 23.3319 31.0392 23.293C31.0684 23.2534 31.1149 23.2305 31.1642 23.2305H42.1059C42.2656 23.2305 42.4128 23.2957 42.5093 23.4089C42.6052 23.5214 42.6447 23.668 42.6197 23.8214C42.5711 24.1249 42.2878 24.3624 41.9746 24.3624ZM31.4795 24.0499H41.9746C42.1329 24.0499 42.2871 23.9228 42.3107 23.7721C42.3204 23.7103 42.3065 23.6534 42.2711 23.6117C42.2336 23.5673 42.1746 23.543 42.1052 23.543H31.369C31.4128 23.7103 31.4496 23.8798 31.4795 24.0499Z" fill="#D0D5DD"/>
<path d="M42.773 19.2148C43.0085 19.2148 43.1689 19.3982 43.1328 19.6253C43.0967 19.851 42.8772 20.0343 42.6425 20.0343H31.4696C31.2348 20.0343 31.0744 19.851 31.1105 19.6253C31.1467 19.3989 31.3654 19.2148 31.6001 19.2148H42.773Z" fill="#D0D5DD"/>
<path d="M42.6424 20.1898H31.4695C31.3097 20.1898 31.1632 20.1253 31.0667 20.0121C30.9709 19.8996 30.932 19.7537 30.9563 19.6003C31.0049 19.2968 31.2875 19.0586 31.6 19.0586H42.7729C42.9327 19.0586 43.0799 19.1239 43.1764 19.2371C43.2722 19.3496 43.3118 19.4961 43.2868 19.6496C43.2389 19.9523 42.9556 20.1898 42.6424 20.1898ZM31.6 19.3704C31.4424 19.3704 31.2889 19.4982 31.2646 19.6489C31.2549 19.7107 31.2688 19.7676 31.3042 19.8093C31.3417 19.853 31.4 19.8773 31.4695 19.8773H42.6424C42.8007 19.8773 42.9549 19.7503 42.9785 19.5996C42.9882 19.5378 42.9743 19.4808 42.9389 19.4392C42.9014 19.3947 42.8424 19.3704 42.7729 19.3704H31.6Z" fill="#D0D5DD"/>
<path d="M40.1094 35.9102C40.3448 35.9102 40.5052 36.0935 40.4691 36.3192C40.433 36.5456 40.2136 36.7296 39.9781 36.7296H23.4969C23.2629 36.7296 23.1018 36.5463 23.1379 36.3192C23.174 36.0935 23.3934 35.9102 23.6275 35.9102H40.1094Z" fill="#D0D5DD"/>
<path d="M39.9783 36.8858H23.4964C23.3374 36.8858 23.1908 36.8213 23.0943 36.7081C22.9985 36.5956 22.9589 36.449 22.9839 36.2949C23.0325 35.9914 23.3151 35.7539 23.6276 35.7539H40.1089C40.2686 35.7539 40.4158 35.8192 40.5124 35.9324C40.6082 36.0449 40.6471 36.1907 40.6228 36.3442C40.5749 36.6477 40.2915 36.8858 39.9783 36.8858ZM23.6269 36.0664C23.4693 36.0664 23.3158 36.1935 23.2915 36.3442C23.2818 36.406 23.2957 36.4636 23.3311 36.5053C23.3686 36.5497 23.4269 36.574 23.4957 36.574H39.9776C40.136 36.574 40.2901 36.4463 40.3137 36.2956C40.3235 36.2345 40.3096 36.1775 40.2742 36.1359C40.2367 36.0914 40.1776 36.0671 40.1082 36.0671H23.6269V36.0664Z" fill="#D0D5DD"/>
<path d="M33.0991 26.5962C33.0866 26.5163 33.0727 26.4365 33.0575 26.3573C33.0561 26.3497 33.0547 26.342 33.0533 26.3344C33.0505 26.3198 33.0464 26.3052 33.0436 26.2899C33.0304 26.2253 33.0158 26.1608 33.0005 26.0969C32.995 26.0733 32.9894 26.049 32.9832 26.0253C32.9623 25.942 32.9401 25.8594 32.9165 25.7774C32.8839 25.6656 32.8464 25.5552 32.8075 25.4455C32.8026 25.4316 32.7991 25.4177 32.7936 25.4038C32.7887 25.3892 32.7818 25.3753 32.7769 25.3615C32.7401 25.2615 32.7012 25.1628 32.6589 25.0649C32.6554 25.0559 32.6519 25.0476 32.6477 25.0385C32.6019 24.9337 32.5519 24.8302 32.5005 24.7274C32.4943 24.7156 32.4894 24.7038 32.4839 24.692C32.4755 24.6753 32.4651 24.6587 32.4568 24.642C32.4214 24.5747 32.3845 24.5087 32.347 24.442C32.3311 24.4149 32.3165 24.3872 32.2998 24.3601C32.2464 24.2698 32.1908 24.1802 32.1318 24.092C32.1318 24.0913 32.1311 24.0913 32.1311 24.0906C32.0818 24.017 32.0311 23.9441 31.9783 23.8719L30.2269 21.4844C30.2804 21.5566 30.3311 21.6302 30.3811 21.7045C30.4401 21.7927 30.4957 21.8823 30.5491 21.9726C30.5651 21.9997 30.5804 22.0274 30.5964 22.0545C30.6339 22.1205 30.6707 22.1872 30.7061 22.2538C30.7214 22.2823 30.7359 22.3108 30.7505 22.3392C30.8026 22.442 30.8519 22.5455 30.8977 22.6503C30.9012 22.6587 30.9047 22.6677 30.9082 22.6767C30.9505 22.7747 30.9894 22.8733 31.0262 22.9733C31.0366 23.001 31.047 23.0295 31.0568 23.0573C31.0957 23.167 31.1325 23.2774 31.1651 23.3892C31.1894 23.4712 31.2109 23.5538 31.2318 23.6372C31.238 23.6615 31.2436 23.6851 31.2491 23.7094C31.2644 23.7733 31.2783 23.8372 31.2915 23.9017C31.2964 23.9247 31.3012 23.9469 31.3054 23.9698C31.3207 24.049 31.3352 24.1288 31.347 24.2087C31.5165 25.2969 31.4172 26.4455 31.0616 27.5628C30.9748 27.8385 30.8707 28.1122 30.7526 28.3823C30.7283 28.4378 30.7026 28.4927 30.6776 28.5476C30.6575 28.5906 30.6373 28.6337 30.6165 28.6767C30.5991 28.7122 30.5818 28.7483 30.5644 28.7837C30.5429 28.8267 30.5207 28.8691 30.4984 28.9122C30.4804 28.9476 30.4616 28.9823 30.4429 29.017C30.42 29.0601 30.3964 29.1024 30.372 29.1455C30.3526 29.1802 30.3332 29.2142 30.3137 29.249C30.2887 29.2913 30.2637 29.3344 30.238 29.3767C30.2193 29.408 30.2012 29.4385 30.1818 29.4698C30.1151 29.5774 30.0464 29.6844 29.9748 29.7899C29.9609 29.8108 29.9464 29.8316 29.9318 29.8531C29.8582 29.9608 29.7818 30.067 29.7026 30.1726C29.6929 30.1851 29.6832 30.1976 29.6741 30.2094C29.6109 30.292 29.5464 30.374 29.4804 30.4552C29.4623 30.4774 29.4443 30.4997 29.4255 30.5226C29.3505 30.6128 29.2734 30.7031 29.1943 30.7913C29.1818 30.8052 29.1693 30.8184 29.1568 30.8323C29.0922 30.9038 29.0262 30.974 28.9589 31.0441C28.9366 31.0677 28.9137 31.0906 28.8908 31.1135C28.82 31.1858 28.747 31.258 28.6734 31.3281C28.663 31.3385 28.6526 31.349 28.6422 31.3587C28.5977 31.4003 28.5526 31.4413 28.5075 31.483C28.4832 31.5052 28.4589 31.5281 28.4339 31.5503C28.363 31.6135 28.2915 31.6753 28.2186 31.7372C28.1276 31.8135 28.0373 31.8858 27.9477 31.9559C27.9415 31.9608 27.9352 31.9656 27.929 31.9705C27.845 32.0358 27.7616 32.0983 27.6783 32.1594C27.6644 32.1698 27.6498 32.1802 27.6359 32.1906C27.5609 32.2448 27.4859 32.2976 27.4109 32.3483C27.3061 32.4198 27.2005 32.4892 27.095 32.5559C26.9908 32.6212 26.8859 32.6837 26.7797 32.7441C26.7519 32.7601 26.7241 32.7747 26.6964 32.7906C26.6033 32.8427 26.5102 32.8934 26.4165 32.942C26.3811 32.9601 26.3457 32.9788 26.3102 32.9969C26.2075 33.049 26.104 33.0983 25.9998 33.1462C25.9811 33.1545 25.963 33.1635 25.9443 33.1719C25.92 33.183 25.895 33.1934 25.8707 33.2038C25.8026 33.2337 25.7345 33.2635 25.6658 33.2913C25.6318 33.3052 25.5977 33.3184 25.5637 33.3323C25.504 33.3559 25.4436 33.3795 25.3839 33.4024C25.3477 33.4163 25.3109 33.4295 25.2748 33.4427C25.2158 33.4642 25.1568 33.4844 25.0977 33.5045C25.0616 33.517 25.0255 33.5288 24.9887 33.5406C24.9401 33.5566 24.8908 33.5712 24.8422 33.5865C24.7825 33.6045 24.722 33.6226 24.6623 33.6399C24.6158 33.6531 24.5693 33.6656 24.522 33.6781C24.4623 33.6941 24.4033 33.7094 24.3436 33.724C24.2964 33.7358 24.2491 33.7469 24.2026 33.7573C24.1429 33.7712 24.0832 33.7837 24.0234 33.7962C23.9769 33.8059 23.9297 33.8156 23.8832 33.824C23.8227 33.8351 23.7623 33.8462 23.7019 33.8559C23.6561 33.8635 23.6095 33.8712 23.5637 33.8781C23.5019 33.8872 23.4401 33.8955 23.379 33.9038C23.3345 33.9094 23.2894 33.9156 23.245 33.9212C23.1804 33.9288 23.1165 33.9344 23.0526 33.9399C23.0109 33.9434 22.9686 33.9483 22.9269 33.951C22.8561 33.9566 22.7859 33.9601 22.7158 33.9635C22.6804 33.9656 22.6457 33.9677 22.6102 33.9691C22.5047 33.9733 22.3998 33.9753 22.295 33.9753C21.0998 33.9753 19.9464 33.7135 18.9345 33.1899C18.604 33.0191 18.2887 32.8198 17.9922 32.5927L19.7436 34.9802C20.0401 35.2073 20.3554 35.4059 20.6859 35.5774C21.697 36.101 22.8512 36.3628 24.0457 36.3628C24.1505 36.3628 24.2554 36.3608 24.3609 36.3566C24.3964 36.3552 24.4311 36.3524 24.4665 36.351C24.5366 36.3476 24.6075 36.3441 24.6776 36.3385C24.7193 36.3351 24.7609 36.3309 24.8026 36.3274C24.8672 36.3219 24.9311 36.3156 24.9957 36.3087C25.0401 36.3038 25.0845 36.2976 25.129 36.292C25.1908 36.2837 25.2526 36.276 25.3144 36.2663C25.3602 36.2594 25.4068 36.2517 25.4526 36.2441C25.513 36.2337 25.5734 36.2233 25.6339 36.2122C25.6804 36.2031 25.7276 36.1941 25.7741 36.1844C25.8339 36.1719 25.8936 36.1594 25.9533 36.1455C26.0005 36.1351 26.047 36.124 26.0936 36.1122C26.1533 36.0976 26.213 36.0823 26.2727 36.0663C26.3193 36.0538 26.3658 36.0413 26.4123 36.0281C26.4727 36.0108 26.5325 35.9927 26.5929 35.9747C26.6227 35.9656 26.6533 35.9573 26.6832 35.9483C26.7019 35.942 26.7207 35.9358 26.7394 35.9295C26.7755 35.9177 26.8116 35.9052 26.8484 35.8934C26.9075 35.8733 26.9665 35.8531 27.0255 35.8316C27.0616 35.8184 27.0984 35.8052 27.1345 35.7913C27.195 35.7691 27.2547 35.7455 27.3144 35.7212C27.3484 35.7073 27.3825 35.6941 27.4165 35.6802C27.4852 35.6517 27.5533 35.6226 27.6214 35.5927C27.6457 35.5816 27.6707 35.5719 27.695 35.5608C27.6991 35.5587 27.704 35.5566 27.7082 35.5552C27.722 35.549 27.7359 35.5413 27.7498 35.5351C27.854 35.4872 27.9575 35.4378 28.0602 35.3858C28.0957 35.3677 28.1311 35.3497 28.1665 35.3309C28.2602 35.2823 28.354 35.2316 28.4464 35.1795C28.4665 35.1684 28.4866 35.1587 28.5061 35.1469C28.5137 35.1427 28.522 35.1372 28.5297 35.133C28.6352 35.0726 28.7408 35.0101 28.845 34.9448C28.9512 34.8781 29.0561 34.8087 29.1609 34.7372C29.1707 34.7309 29.1797 34.7247 29.1894 34.7184C29.2547 34.6733 29.3207 34.6267 29.3859 34.5795C29.3998 34.5691 29.4144 34.5587 29.4283 34.5483C29.5116 34.4872 29.595 34.4247 29.6783 34.3594C29.6845 34.3545 29.6908 34.3497 29.6971 34.3448C29.7415 34.3101 29.7866 34.2747 29.8311 34.2378C29.8762 34.201 29.922 34.1635 29.9672 34.1253C30.0401 34.0635 30.1116 34.0017 30.1825 33.9385C30.2075 33.9163 30.2311 33.8941 30.2554 33.8719C30.3005 33.8302 30.3464 33.7892 30.3908 33.7469C30.3929 33.7448 30.3957 33.7427 30.3977 33.7406C30.4061 33.733 30.4137 33.7247 30.4214 33.717C30.4957 33.6462 30.5679 33.574 30.6394 33.5017C30.6623 33.4788 30.6845 33.4552 30.7068 33.4323C30.7741 33.3622 30.8401 33.292 30.9047 33.2205C30.9144 33.2101 30.9248 33.1997 30.9339 33.1892C30.9366 33.1865 30.9387 33.183 30.9415 33.1802C31.0207 33.0913 31.0977 33.0017 31.1727 32.9115C31.1915 32.8892 31.2095 32.867 31.2276 32.8448C31.2936 32.7635 31.3589 32.6816 31.4214 32.599C31.4283 32.5892 31.4366 32.5802 31.4436 32.5705C31.4457 32.5677 31.4477 32.5649 31.4498 32.5622C31.529 32.4566 31.6054 32.3503 31.679 32.2427C31.6936 32.2219 31.7075 32.201 31.722 32.1802C31.7936 32.074 31.863 31.967 31.9297 31.8594C31.9339 31.8524 31.9387 31.8462 31.9429 31.8392C31.9575 31.8149 31.9714 31.7906 31.9859 31.7663C32.0116 31.724 32.0366 31.6816 32.0616 31.6385C32.0818 31.6038 32.1005 31.5691 32.12 31.5351C32.1436 31.4927 32.1672 31.4503 32.1901 31.4073C32.2089 31.3726 32.2276 31.3372 32.2457 31.3017C32.2679 31.2594 32.2901 31.2163 32.3109 31.1733C32.329 31.1378 32.3464 31.1024 32.3637 31.0663C32.3845 31.0233 32.4047 30.9802 32.4248 30.9372C32.4332 30.9184 32.4429 30.9003 32.4512 30.8816C32.4679 30.8448 32.4839 30.8087 32.4998 30.7719C32.6186 30.5017 32.7221 30.2281 32.8089 29.9524C33.1693 28.8337 33.2686 27.6851 33.0991 26.5962Z" fill="#D0D5DD"/>
<path d="M24.0467 36.5194C22.8161 36.5194 21.63 36.2416 20.6148 35.7159C20.2738 35.5395 19.9495 35.334 19.6488 35.1041C19.637 35.0951 19.6266 35.0847 19.6175 35.0722L17.8661 32.6847C17.8203 32.6222 17.8273 32.5354 17.8828 32.4805C17.9384 32.4263 18.0252 32.4208 18.087 32.468C18.3724 32.6868 18.6814 32.8826 19.0064 33.0507C19.9773 33.5534 21.1141 33.8187 22.2946 33.8187C22.3925 33.8187 22.4967 33.8166 22.6036 33.8125C22.6238 33.8118 22.6432 33.8104 22.6634 33.809L22.7071 33.8062C22.7766 33.8027 22.8453 33.7993 22.9148 33.7937C22.9418 33.7916 22.9689 33.7888 22.9953 33.7868L23.0377 33.7826C23.1023 33.777 23.1648 33.7708 23.2266 33.7638C23.2592 33.7604 23.2918 33.7555 23.3245 33.7513L23.3585 33.7472C23.4189 33.7395 23.4793 33.7312 23.5404 33.7222C23.5807 33.7159 23.6217 33.709 23.662 33.702L23.6759 33.7C23.7349 33.6902 23.7946 33.6798 23.8536 33.6687C23.8995 33.6597 23.9453 33.6507 23.9918 33.6409C24.0502 33.6291 24.1092 33.6159 24.1675 33.6027C24.2141 33.5923 24.2599 33.5812 24.3064 33.5701C24.3648 33.5555 24.4238 33.5409 24.4821 33.525C24.5279 33.5125 24.5738 33.5007 24.6196 33.4875C24.6786 33.4708 24.7377 33.4527 24.7967 33.4347L24.8161 33.4284C24.8578 33.4159 24.8995 33.4027 24.9404 33.3895C24.9766 33.3777 25.012 33.3659 25.0474 33.3541C25.1057 33.3347 25.1634 33.3145 25.2217 33.293C25.2571 33.2798 25.2932 33.2673 25.3286 33.2534C25.3877 33.2312 25.4467 33.2083 25.5057 33.1847L25.5328 33.1743C25.5571 33.1645 25.5821 33.1548 25.6064 33.1451C25.6738 33.1173 25.7404 33.0882 25.8078 33.059L25.8398 33.0451C25.8529 33.0395 25.8668 33.0333 25.88 33.0277L25.9342 33.002C26.0342 32.9562 26.137 32.9069 26.2391 32.8555C26.2738 32.8382 26.3092 32.8201 26.3439 32.802C26.4356 32.7548 26.5279 32.7048 26.6196 32.6534L26.6536 32.6347C26.6696 32.6257 26.6856 32.6173 26.7016 32.6083C26.8154 32.543 26.9168 32.4826 27.0113 32.4229C27.1078 32.3625 27.2092 32.2958 27.3224 32.2187C27.396 32.168 27.4703 32.1166 27.5439 32.0632L27.5856 32.0326C27.6759 31.9666 27.7564 31.9055 27.8321 31.8465L27.8509 31.8312C27.9446 31.7576 28.0321 31.6868 28.1168 31.6159C28.1884 31.5555 28.2585 31.4944 28.3279 31.4326C28.3425 31.4194 28.3564 31.4062 28.371 31.393L28.4182 31.35C28.4564 31.3152 28.4953 31.2798 28.5328 31.2444L28.5641 31.2145C28.6342 31.1472 28.7043 31.0784 28.7786 31.0027C28.8009 30.9798 28.8231 30.9569 28.8453 30.934C28.9113 30.8652 28.9766 30.7958 29.0398 30.7257L29.0766 30.6861C29.1502 30.6041 29.2245 30.5173 29.3043 30.4215L29.3585 30.3555C29.4273 30.2715 29.4898 30.1923 29.5488 30.1138L29.5772 30.0777C29.6495 29.9819 29.7231 29.8791 29.8023 29.7638L29.8446 29.702C29.9168 29.5958 29.9849 29.4895 30.0481 29.3875C30.0641 29.3611 30.08 29.3347 30.096 29.3083L30.1029 29.2965C30.1279 29.2548 30.1529 29.2132 30.1773 29.1708C30.1946 29.1409 30.2113 29.1111 30.2279 29.0812L30.2349 29.0687C30.2585 29.027 30.2814 28.9847 30.3043 28.943C30.3231 28.909 30.3411 28.8743 30.3592 28.8395C30.3807 28.7979 30.4023 28.7555 30.4238 28.7138C30.4411 28.6791 30.4585 28.6444 30.4752 28.609C30.4953 28.5666 30.5154 28.525 30.5349 28.4826L30.5411 28.468C30.5641 28.4187 30.587 28.3694 30.6085 28.3201C30.7259 28.052 30.8286 27.7819 30.912 27.5159C31.2599 26.4243 31.3564 25.2895 31.1918 24.2333C31.1807 24.1611 31.1675 24.0847 31.1509 24L31.137 23.9333C31.1238 23.8701 31.1106 23.8076 31.0953 23.7451L31.0779 23.6743C31.055 23.5819 31.0342 23.5048 31.0127 23.4333C30.9842 23.3368 30.9509 23.234 30.9064 23.109C30.8967 23.0819 30.887 23.0541 30.8766 23.027C30.837 22.9208 30.7995 22.8263 30.7613 22.7382L30.7509 22.7125C30.7106 22.6201 30.6641 22.5215 30.6071 22.4097C30.5932 22.3819 30.5786 22.3541 30.5641 22.3263C30.5293 22.2611 30.4939 22.1965 30.4571 22.1319L30.4425 22.1069C30.4321 22.0888 30.4217 22.0701 30.4106 22.052C30.3523 21.9541 30.2988 21.8687 30.2467 21.7909C30.1981 21.718 30.1474 21.6458 30.0967 21.5763C30.046 21.5069 30.0606 21.409 30.13 21.3583C30.1995 21.3076 30.2974 21.3222 30.3481 21.3916L30.3488 21.3923L32.0995 23.7791C32.1529 23.852 32.2057 23.9277 32.2564 24.0034C32.2571 24.0048 32.2578 24.0062 32.2592 24.0076C32.3141 24.0902 32.3696 24.1791 32.43 24.2798C32.4418 24.2993 32.4523 24.3187 32.4634 24.3375L32.4779 24.3632C32.5168 24.4312 32.5543 24.4993 32.5904 24.568L32.6002 24.5861C32.6064 24.5972 32.6127 24.6083 32.6182 24.6194C32.6224 24.627 32.6259 24.6354 32.6293 24.643L32.6349 24.6555C32.6939 24.7722 32.7432 24.8763 32.7863 24.975L32.7974 25.0013C32.8384 25.0972 32.8779 25.1965 32.9189 25.3062L32.9245 25.3208C32.9286 25.3305 32.9328 25.3402 32.9363 25.3507C32.9398 25.3597 32.9425 25.3694 32.9453 25.3791L32.9502 25.3937C32.996 25.5222 33.0314 25.6305 33.0613 25.7333C33.0835 25.809 33.105 25.8895 33.13 25.9868C33.1349 26.0055 33.1391 26.025 33.1439 26.0437L33.1481 26.0604C33.1641 26.1263 33.1786 26.1923 33.1918 26.2583L33.196 26.2757C33.1981 26.2847 33.2002 26.2937 33.2023 26.3034L33.2064 26.3277C33.2238 26.418 33.2377 26.4979 33.2495 26.5729C33.421 27.677 33.321 28.8611 32.9585 29.9979C32.8717 30.2729 32.7654 30.5541 32.6432 30.8326C32.6273 30.8694 32.6106 30.9069 32.5939 30.9437C32.5884 30.9555 32.5835 30.9666 32.5779 30.9777L32.5668 31.0007C32.5467 31.0444 32.5259 31.0882 32.505 31.1312C32.4877 31.168 32.4696 31.2041 32.4516 31.2402C32.43 31.284 32.4078 31.327 32.3849 31.3708C32.3661 31.4069 32.3474 31.4423 32.3279 31.4784C32.3043 31.5222 32.2807 31.5652 32.2564 31.6083L32.246 31.627C32.23 31.6562 32.2134 31.6854 32.1967 31.7138C32.1717 31.7576 32.146 31.8007 32.1196 31.8437L32.1016 31.8736C32.0932 31.8882 32.0842 31.9027 32.0759 31.9173L32.0661 31.9326C31.9967 32.0444 31.9259 32.1541 31.8516 32.2638L31.8078 32.327C31.7252 32.4472 31.6488 32.5534 31.5745 32.652L31.5453 32.6902C31.4842 32.7701 31.4182 32.8548 31.3481 32.9402L31.3411 32.9493C31.3252 32.9687 31.3092 32.9888 31.2925 33.0083C31.2099 33.1076 31.1335 33.1972 31.0571 33.2819L31.0488 33.2916C31.0432 33.2979 31.037 33.3048 31.0307 33.3111L31.0189 33.3236C30.9529 33.3958 30.8863 33.4673 30.8182 33.5382C30.7953 33.5618 30.7724 33.5854 30.7495 33.609C30.6724 33.6875 30.5995 33.759 30.5279 33.8277L30.5196 33.8361C30.5141 33.8416 30.5092 33.8465 30.5036 33.852C30.5029 33.8527 30.4981 33.8569 30.4974 33.8576C30.4585 33.8944 30.4189 33.9305 30.3793 33.9666L30.3314 34.0111C30.3161 34.025 30.3009 34.0395 30.2849 34.0534C30.2134 34.1173 30.1404 34.1805 30.0661 34.243C30.0196 34.2819 29.9738 34.3201 29.9279 34.3569C29.8821 34.3937 29.837 34.4298 29.7918 34.4652L29.7731 34.4805C29.6939 34.5423 29.6106 34.6055 29.5189 34.6722L29.4759 34.7041C29.4092 34.752 29.3425 34.8 29.2759 34.8458C29.2696 34.85 29.2634 34.8541 29.2571 34.8583L29.2467 34.8652C29.1307 34.9444 29.0252 35.0132 28.9252 35.0763C28.8259 35.1388 28.721 35.2013 28.605 35.268L28.5807 35.2826C28.5689 35.2895 28.5564 35.2958 28.5446 35.302C28.5363 35.3062 28.5279 35.3104 28.5203 35.3152C28.4252 35.3687 28.3293 35.4201 28.2356 35.4687C28.1995 35.4875 28.1634 35.5062 28.1273 35.5243C28.021 35.5777 27.9148 35.6284 27.812 35.6757L27.796 35.6833C27.787 35.6875 27.7779 35.6923 27.7689 35.6958L27.7592 35.7C27.7404 35.7083 27.7252 35.7152 27.7099 35.7215L27.6807 35.734C27.6113 35.7645 27.5418 35.7944 27.4724 35.8229C27.4481 35.8333 27.4231 35.843 27.3981 35.8527L27.3689 35.8645C27.3078 35.8888 27.2467 35.9125 27.1856 35.9354C27.1488 35.9493 27.112 35.9625 27.0752 35.9763C27.0154 35.9979 26.955 36.0187 26.8953 36.0395C26.8571 36.052 26.821 36.0645 26.7849 36.0763L26.7613 36.084C26.7502 36.0882 26.7384 36.0916 26.7273 36.0951C26.7092 36.1007 26.6911 36.1062 26.6724 36.1111L26.6356 36.1222C26.5745 36.1409 26.5134 36.159 26.4523 36.1763C26.405 36.1895 26.3578 36.2027 26.3106 36.2152C26.2495 36.2312 26.1891 36.2472 26.1279 36.2618C26.0807 36.2736 26.0328 36.2847 25.9849 36.2958C25.9238 36.3097 25.8634 36.3229 25.8023 36.3354C25.7543 36.3451 25.7071 36.3548 25.6592 36.3638C25.5981 36.3757 25.5363 36.3861 25.4745 36.3965L25.4585 36.3993C25.4168 36.4062 25.3759 36.4132 25.3342 36.4194C25.271 36.4291 25.2085 36.4375 25.1453 36.4451L25.1113 36.4493C25.0773 36.4534 25.0432 36.4583 25.0099 36.4618C24.9446 36.4694 24.8793 36.475 24.8141 36.4812L24.7724 36.4854C24.7432 36.4882 24.7148 36.4909 24.6856 36.493C24.6134 36.4986 24.5418 36.502 24.4703 36.5055L24.43 36.5076C24.4078 36.509 24.3856 36.5104 24.3634 36.5111C24.2571 36.5173 24.1488 36.5194 24.0467 36.5194ZM19.8571 34.8694C20.1377 35.0826 20.4411 35.2736 20.7592 35.4382C21.73 35.9409 22.8668 36.2062 24.0474 36.2062C24.1453 36.2062 24.2495 36.2041 24.3564 36.2C24.3766 36.1993 24.3967 36.1979 24.4168 36.1965L24.4599 36.1937C24.5293 36.1902 24.5981 36.1868 24.6675 36.1812C24.6946 36.1791 24.7217 36.1763 24.7488 36.1743L24.7911 36.1701C24.855 36.1645 24.9175 36.1583 24.9807 36.1513C25.0127 36.1479 25.0446 36.1437 25.0773 36.1395L25.112 36.1347C25.1724 36.127 25.2335 36.1187 25.2939 36.1097C25.3335 36.1034 25.3738 36.0972 25.4134 36.0902L25.4293 36.0875C25.4891 36.0777 25.5481 36.0673 25.6071 36.0562C25.6529 36.0472 25.6988 36.0382 25.7453 36.0284C25.8043 36.0166 25.8627 36.0034 25.9217 35.9902C25.9675 35.9798 26.0141 35.9687 26.0599 35.9576C26.1189 35.943 26.1773 35.9277 26.2363 35.9125C26.2821 35.9 26.3279 35.8882 26.3731 35.875C26.4321 35.8583 26.4911 35.8402 26.5502 35.8222L26.5918 35.8097C26.6078 35.8048 26.6231 35.8007 26.6384 35.7958L26.6939 35.777C26.7286 35.7659 26.7641 35.7541 26.7988 35.7423C26.8585 35.7222 26.9168 35.702 26.9745 35.6812C27.0099 35.668 27.046 35.6555 27.0814 35.6416C27.1404 35.6194 27.1995 35.5965 27.2585 35.5729L27.2884 35.5611C27.312 35.552 27.3349 35.5423 27.3585 35.5333C27.4259 35.5055 27.4932 35.4763 27.5599 35.4472L27.5918 35.4333C27.6057 35.4277 27.6189 35.4215 27.6321 35.4159L27.6627 35.402C27.671 35.3979 27.6786 35.3944 27.687 35.3902C27.7863 35.3444 27.8891 35.2951 27.9925 35.2437C28.0279 35.2263 28.0627 35.2083 28.0974 35.1902C28.1884 35.143 28.2807 35.093 28.3731 35.0416C28.3835 35.0361 28.3939 35.0305 28.4043 35.025C28.4134 35.0201 28.4224 35.0152 28.4314 35.0104L28.4543 34.9965C28.5675 34.9319 28.6689 34.8708 28.7648 34.8111C28.8613 34.7507 28.9634 34.684 29.0759 34.6069L29.1036 34.5888C29.1682 34.5444 29.2328 34.4986 29.2974 34.452L29.3398 34.4208C29.4286 34.3555 29.5092 34.2951 29.5856 34.2347L29.6043 34.2194C29.6474 34.1854 29.6918 34.1507 29.7363 34.1145C29.7807 34.0784 29.8259 34.0416 29.8703 34.0041C29.9418 33.9437 30.012 33.8826 30.0814 33.8208C30.096 33.8083 30.1099 33.7951 30.1231 33.7826L30.1731 33.7368C30.2106 33.702 30.2488 33.668 30.2856 33.6326C30.2863 33.6319 30.2898 33.6284 30.2911 33.6277L30.3168 33.6027C30.3863 33.5368 30.4564 33.4673 30.5314 33.3909C30.5536 33.368 30.5759 33.3451 30.5981 33.3222C30.6641 33.2534 30.7293 33.184 30.7925 33.1138L30.8293 33.0736C30.9023 32.9916 30.9773 32.9055 31.0571 32.809C31.0731 32.7902 31.0884 32.7715 31.1036 32.752L31.1113 32.743C31.1786 32.6604 31.2432 32.5784 31.3023 32.5013L31.3307 32.4645C31.4023 32.3701 31.4759 32.2673 31.5557 32.1513L31.5974 32.0902C31.6696 31.984 31.7377 31.8777 31.8016 31.775L31.8141 31.7555C31.8217 31.743 31.8293 31.7298 31.837 31.7166L31.8564 31.684C31.8814 31.6423 31.9064 31.6007 31.9307 31.559C31.9467 31.5312 31.9627 31.5034 31.9779 31.475L31.9884 31.4562C32.0113 31.4145 32.0349 31.3729 32.0571 31.3312C32.0759 31.2965 32.0939 31.2625 32.112 31.2277C32.1335 31.1861 32.155 31.1444 32.1759 31.102C32.1932 31.0666 32.2106 31.0319 32.2279 30.9965C32.2481 30.9548 32.2682 30.9125 32.2877 30.8701L32.3141 30.8152C32.33 30.7798 32.346 30.7444 32.362 30.7083C32.48 30.4395 32.5821 30.1694 32.6654 29.9041C33.0134 28.8125 33.1099 27.6777 32.9453 26.6215C32.9342 26.5507 32.921 26.475 32.9043 26.3888L32.8911 26.3229C32.8779 26.2597 32.8641 26.1972 32.8495 26.1347L32.8453 26.1173C32.8411 26.1 32.837 26.0819 32.8328 26.0645C32.8092 25.9715 32.7884 25.8944 32.7675 25.8229C32.7391 25.725 32.705 25.6222 32.6613 25.4993C32.6585 25.4902 32.6557 25.4826 32.6529 25.4743C32.6516 25.4694 32.6495 25.4638 32.6481 25.459C32.646 25.4534 32.6439 25.4486 32.6418 25.4437C32.6384 25.4354 32.6349 25.4263 32.6314 25.418C32.5925 25.3138 32.555 25.2187 32.5161 25.1291L32.5057 25.1034C32.4654 25.0104 32.4182 24.9111 32.362 24.8C32.3585 24.793 32.3543 24.7847 32.3509 24.777L32.3453 24.7645C32.3418 24.7576 32.3377 24.75 32.3335 24.743C32.3286 24.7347 32.3238 24.7257 32.3189 24.7166C32.2842 24.6507 32.2488 24.5861 32.212 24.5215L32.1967 24.4944C32.187 24.477 32.1766 24.459 32.1661 24.4416C32.1078 24.3437 32.0543 24.2576 32.0023 24.1805C32.0016 24.1798 32.0009 24.1784 32.0002 24.177C31.9523 24.1055 31.9023 24.0347 31.8523 23.9659L31.2543 23.1507C31.2779 23.2208 31.2981 23.2854 31.3161 23.3472C31.3384 23.4229 31.3606 23.5034 31.3849 23.6007L31.4029 23.6743C31.4182 23.7402 31.4328 23.8055 31.4467 23.8715L31.4613 23.9409C31.4786 24.0298 31.4925 24.1097 31.5043 24.1861C31.6759 25.2902 31.5752 26.4743 31.2134 27.6111C31.1266 27.8868 31.0203 28.168 30.8981 28.4458C30.8759 28.4972 30.8516 28.5486 30.8279 28.6L30.8217 28.6138C30.8016 28.6576 30.7807 28.7013 30.7599 28.7451C30.7425 28.7812 30.7245 28.8173 30.7064 28.8541C30.6842 28.8979 30.662 28.9416 30.6398 28.9847C30.621 29.0201 30.6023 29.0562 30.5835 29.0916C30.5599 29.1354 30.5356 29.1784 30.5113 29.2222L30.5043 29.2347C30.487 29.2659 30.4696 29.2965 30.4516 29.3277C30.4266 29.3715 30.4009 29.4145 30.3745 29.4576L30.3675 29.4694C30.3509 29.4972 30.3342 29.525 30.3175 29.552C30.2523 29.6583 30.1814 29.768 30.1064 29.8784L30.0627 29.9423C29.9807 30.0618 29.9043 30.168 29.8293 30.2673L29.8002 30.3048C29.7384 30.3861 29.6738 30.468 29.6029 30.5548L29.5467 30.6229C29.4648 30.7222 29.3877 30.8111 29.3113 30.8958L29.2731 30.9368C29.2071 31.009 29.1404 31.0805 29.0717 31.152C29.0488 31.1757 29.0259 31.1993 29.0029 31.2229C28.9266 31.3007 28.8543 31.3722 28.7814 31.4416L28.7495 31.4729C28.7106 31.5097 28.671 31.5458 28.6307 31.5826L28.5856 31.6243C28.5696 31.6388 28.5543 31.6534 28.5384 31.6673C28.4668 31.7312 28.3939 31.7944 28.3196 31.8569C28.2314 31.9305 28.1418 32.0034 28.0446 32.0791L28.0259 32.0944C27.9474 32.1555 27.8641 32.2187 27.7717 32.2861L27.7286 32.318C27.6523 32.3736 27.5759 32.4263 27.5002 32.4784C27.3842 32.5576 27.2786 32.6263 27.1786 32.6895C27.08 32.7513 26.9752 32.8138 26.8585 32.8812C26.8411 32.8909 26.8238 32.9007 26.8057 32.9104L26.7738 32.9284C26.6793 32.9812 26.5835 33.0333 26.4891 33.0819C26.4529 33.1007 26.4168 33.1194 26.3807 33.1375C26.2745 33.1909 26.1689 33.2416 26.0654 33.2888L26.0411 33.3C26.0307 33.3048 26.0196 33.3104 26.0092 33.3152C25.9939 33.3222 25.9786 33.3284 25.9634 33.3354L25.9335 33.3479C25.8641 33.3784 25.7946 33.4083 25.7252 33.4368C25.6995 33.4472 25.6738 33.4576 25.6474 33.468L25.621 33.4784C25.5599 33.5027 25.4995 33.5263 25.4377 33.5493C25.4009 33.5632 25.3641 33.5763 25.3266 33.5902C25.2668 33.6118 25.2064 33.6326 25.1467 33.6527C25.1099 33.6652 25.0731 33.6777 25.0363 33.6895C24.9932 33.7034 24.9495 33.7166 24.9064 33.7298L24.887 33.7354C24.8259 33.7541 24.7648 33.7722 24.7036 33.7895C24.6564 33.8027 24.6085 33.8159 24.5613 33.8284C24.5009 33.8444 24.4404 33.8604 24.3793 33.875C24.3314 33.8868 24.2835 33.8979 24.2356 33.909C24.1752 33.9229 24.1141 33.9361 24.0536 33.9486C24.0064 33.9583 23.9585 33.968 23.9106 33.977C23.8488 33.9888 23.7877 33.9993 23.7259 34.0097L23.712 34.0118C23.6696 34.0187 23.6273 34.0257 23.5849 34.0326C23.5217 34.0423 23.4592 34.0507 23.3967 34.0583L23.3634 34.0625C23.3286 34.0673 23.2946 34.0715 23.2606 34.0757C23.196 34.0833 23.1314 34.0888 23.0668 34.0951L23.0238 34.0993C22.9946 34.102 22.9654 34.1048 22.937 34.1069C22.8654 34.1125 22.7939 34.1159 22.7224 34.1194L22.6814 34.1215C22.6592 34.1229 22.637 34.1243 22.6148 34.125C22.5036 34.1291 22.396 34.1312 22.2939 34.1312C21.0634 34.1312 19.8773 33.8534 18.862 33.3277C18.7849 33.2882 18.7092 33.2465 18.6342 33.2041L19.8571 34.8694Z" fill="#F9FAFB"/>
<path d="M53.4201 37.0178C53.9907 37.0178 54.4534 36.5552 54.4534 35.9845C54.4534 35.4138 53.9907 34.9512 53.4201 34.9512C52.8494 34.9512 52.3867 35.4138 52.3867 35.9845C52.3867 36.5552 52.8494 37.0178 53.4201 37.0178Z" fill="#F9FAFB"/>
<path d="M9.96693 33.2053C10.5376 33.2053 11.0003 32.7427 11.0003 32.172C11.0003 31.6013 10.5376 31.1387 9.96693 31.1387C9.39623 31.1387 8.93359 31.6013 8.93359 32.172C8.93359 32.7427 9.39623 33.2053 9.96693 33.2053Z" fill="#F9FAFB"/>
<path d="M10.485 34.0422C10.686 34.0422 10.8489 33.8793 10.8489 33.6783C10.8489 33.4774 10.686 33.3145 10.485 33.3145C10.284 33.3145 10.1211 33.4774 10.1211 33.6783C10.1211 33.8793 10.284 34.0422 10.485 34.0422Z" fill="#F9FAFB"/>
<path d="M15.6076 20.2092C16.1782 20.2092 16.6409 19.7466 16.6409 19.1759C16.6409 18.6052 16.1782 18.1426 15.6076 18.1426C15.0369 18.1426 14.5742 18.6052 14.5742 19.1759C14.5742 19.7466 15.0369 20.2092 15.6076 20.2092Z" fill="#F9FAFB"/>
<path d="M16.817 18.5032C17.018 18.5032 17.1809 18.3403 17.1809 18.1393C17.1809 17.9383 17.018 17.7754 16.817 17.7754C16.616 17.7754 16.4531 17.9383 16.4531 18.1393C16.4531 18.3403 16.616 18.5032 16.817 18.5032Z" fill="#F9FAFB"/>
<path d="M56.0747 14.7684C57.0565 14.7684 57.8524 13.9725 57.8524 12.9907C57.8524 12.0088 57.0565 11.2129 56.0747 11.2129C55.0928 11.2129 54.2969 12.0088 54.2969 12.9907C54.2969 13.9725 55.0928 14.7684 56.0747 14.7684Z" fill="#E4E7EC"/>
<path d="M54.2957 12.113C54.7633 12.113 55.1423 11.734 55.1423 11.2664C55.1423 10.7989 54.7633 10.4199 54.2957 10.4199C53.8282 10.4199 53.4492 10.7989 53.4492 11.2664C53.4492 11.734 53.8282 12.113 54.2957 12.113Z" fill="#F9FAFB"/>
</svg>
