<svg width="38" height="45" viewBox="0 0 38 45" fill="none" xmlns="http://www.w3.org/2000/svg">
<path d="M36.4001 44.2615C36.8142 44.2615 37.2114 44.097 37.5043 43.8041C37.7971 43.5112 37.9617 43.114 37.9617 42.6999V22.7897C37.9617 22.1232 37.8304 21.4633 37.5753 20.8475C37.3203 20.2318 36.9465 19.6723 36.4752 19.201C36.0039 18.7297 35.4444 18.3559 34.8287 18.1009C34.213 17.8458 33.553 17.7145 32.8865 17.7145H28.5922V5.61226C28.5922 4.94578 28.4609 4.28583 28.2058 3.67008C27.9508 3.05434 27.577 2.49486 27.1057 2.02359C26.6344 1.55231 26.0749 1.17848 25.4592 0.923432C24.8434 0.668382 24.1835 0.537109 23.517 0.537109H5.1684C3.92592 0.537109 2.73434 1.03068 1.85578 1.90924C0.977214 2.7878 0.483643 3.97939 0.483643 5.22186V42.6999C0.483643 43.114 0.648166 43.5112 0.94102 43.8041C1.23387 44.097 1.63107 44.2615 2.04523 44.2615H36.4001Z" fill="url(#paint0_linear_9182_6314)"/>
<path d="M27.8107 34.8926C28.4319 34.8926 29.0277 35.1394 29.467 35.5786C29.9063 36.0179 30.1531 36.6137 30.1531 37.235V44.2621H19.222L17.6604 40.3581L19.222 34.8926H27.8107Z" fill="url(#paint1_linear_9182_6314)"/>
<path d="M10.6322 34.8926C10.0109 34.8926 9.41514 35.1394 8.97586 35.5786C8.53658 36.0179 8.28979 36.6137 8.28979 37.235V44.2621H19.2209V34.8926H10.6322Z" fill="url(#paint2_linear_9182_6314)"/>
<path d="M10.6322 13.0295C11.2534 13.0295 11.8492 12.7827 12.2885 12.3434C12.7278 11.9041 12.9745 11.3083 12.9745 10.6871C12.9745 10.0659 12.7278 9.47007 12.2885 9.03079C11.8492 8.59151 11.2534 8.34473 10.6322 8.34473C10.0109 8.34473 9.41514 8.59151 8.97586 9.03079C8.53658 9.47007 8.28979 10.0659 8.28979 10.6871C8.28979 11.3083 8.53658 11.9041 8.97586 12.3434C9.41514 12.7827 10.0109 13.0295 10.6322 13.0295ZM10.6322 20.8374C11.2534 20.8374 11.8492 20.5906 12.2885 20.1513C12.7278 19.7121 12.9745 19.1163 12.9745 18.495C12.9745 17.8738 12.7278 17.278 12.2885 16.8387C11.8492 16.3994 11.2534 16.1526 10.6322 16.1526C10.0109 16.1526 9.41514 16.3994 8.97586 16.8387C8.53658 17.278 8.28979 17.8738 8.28979 18.495C8.28979 19.1163 8.53658 19.7121 8.97586 20.1513C9.41514 20.5906 10.0109 20.8374 10.6322 20.8374ZM12.9745 26.3029C12.9745 26.9242 12.7278 27.52 12.2885 27.9593C11.8492 28.3985 11.2534 28.6453 10.6322 28.6453C10.0109 28.6453 9.41514 28.3985 8.97586 27.9593C8.53658 27.52 8.28979 26.9242 8.28979 26.3029C8.28979 25.6817 8.53658 25.0859 8.97586 24.6466C9.41514 24.2074 10.0109 23.9606 10.6322 23.9606C11.2534 23.9606 11.8492 24.2074 12.2885 24.6466C12.7278 25.0859 12.9745 25.6817 12.9745 26.3029ZM18.4401 13.0295C19.0613 13.0295 19.6571 12.7827 20.0964 12.3434C20.5357 11.9041 20.7825 11.3083 20.7825 10.6871C20.7825 10.0659 20.5357 9.47007 20.0964 9.03079C19.6571 8.59151 19.0613 8.34473 18.4401 8.34473C17.8189 8.34473 17.2231 8.59151 16.7838 9.03079C16.3445 9.47007 16.0977 10.0659 16.0977 10.6871C16.0977 11.3083 16.3445 11.9041 16.7838 12.3434C17.2231 12.7827 17.8189 13.0295 18.4401 13.0295ZM20.7825 18.495C20.7825 19.1163 20.5357 19.7121 20.0964 20.1513C19.6571 20.5906 19.0613 20.8374 18.4401 20.8374C17.8189 20.8374 17.2231 20.5906 16.7838 20.1513C16.3445 19.7121 16.0977 19.1163 16.0977 18.495C16.0977 17.8738 16.3445 17.278 16.7838 16.8387C17.2231 16.3994 17.8189 16.1526 18.4401 16.1526C19.0613 16.1526 19.6571 16.3994 20.0964 16.8387C20.5357 17.278 20.7825 17.8738 20.7825 18.495ZM18.4401 28.6453C19.0613 28.6453 19.6571 28.3985 20.0964 27.9593C20.5357 27.52 20.7825 26.9242 20.7825 26.3029C20.7825 25.6817 20.5357 25.0859 20.0964 24.6466C19.6571 24.2074 19.0613 23.9606 18.4401 23.9606C17.8189 23.9606 17.2231 24.2074 16.7838 24.6466C16.3445 25.0859 16.0977 25.6817 16.0977 26.3029C16.0977 26.9242 16.3445 27.52 16.7838 27.9593C17.2231 28.3985 17.8189 28.6453 18.4401 28.6453ZM28.5904 26.3029C28.5904 26.9242 28.3436 27.52 27.9043 27.9593C27.465 28.3985 26.8693 28.6453 26.248 28.6453C25.6268 28.6453 25.031 28.3985 24.5917 27.9593C24.1524 27.52 23.9056 26.9242 23.9056 26.3029C23.9056 25.6817 24.1524 25.0859 24.5917 24.6466C25.031 24.2074 25.6268 23.9606 26.248 23.9606C26.8693 23.9606 27.465 24.2074 27.9043 24.6466C28.3436 25.0859 28.5904 25.6817 28.5904 26.3029Z" fill="url(#paint3_linear_9182_6314)"/>
<defs>
<linearGradient id="paint0_linear_9182_6314" x1="0.483643" y1="1.9035" x2="42.0327" y2="47.4971" gradientUnits="userSpaceOnUse">
<stop stop-color="#29C3FF"/>
<stop offset="1" stop-color="#2764E7"/>
</linearGradient>
<linearGradient id="paint1_linear_9182_6314" x1="19.222" y1="33.331" x2="27.2626" y2="42.727" gradientUnits="userSpaceOnUse">
<stop stop-color="#0067BF"/>
<stop offset="1" stop-color="#003580"/>
</linearGradient>
<linearGradient id="paint2_linear_9182_6314" x1="8.68019" y1="36.9429" x2="16.2242" y2="44.7805" gradientUnits="userSpaceOnUse">
<stop stop-color="#0067BF"/>
<stop offset="1" stop-color="#003580"/>
</linearGradient>
<linearGradient id="paint3_linear_9182_6314" x1="14.38" y1="6.0898" x2="21.7959" y2="32.7882" gradientUnits="userSpaceOnUse">
<stop stop-color="#FDFDFD"/>
<stop offset="1" stop-color="#B3E0FF"/>
</linearGradient>
</defs>
</svg>
