<svg width="112" height="32" viewBox="0 0 112 32" fill="none" xmlns="http://www.w3.org/2000/svg">
<circle cx="3.66226" cy="8.01285" r="2.97867" fill="white"/>
<circle cx="24.5128" cy="8.01285" r="2.97867" fill="white"/>
<rect x="0.683594" y="13.0801" width="5.90132" height="13.8855" fill="white" fill-opacity="0.5"/>
<rect x="21.5117" y="13.0801" width="5.90132" height="13.8855" fill="white" fill-opacity="0.5"/>
<path d="M27.4916 13.2256C27.4916 16.7805 26.0794 20.1899 23.5657 22.7036C21.0519 25.2174 17.6426 26.6296 14.0876 26.6296C10.5326 26.6296 7.12327 25.2174 4.60954 22.7036C2.0958 20.1899 0.683594 16.7806 0.683594 13.2256L6.58135 13.2256C6.58135 15.2164 7.37219 17.1256 8.77988 18.5333C10.1876 19.941 12.0968 20.7318 14.0876 20.7318C16.0784 20.7318 17.9876 19.941 19.3953 18.5333C20.803 17.1256 21.5938 15.2164 21.5938 13.2256H27.4916Z" fill="white"/>
<path opacity="0.9" d="M50.2249 12.0433V14.2841H44.1681V15.4378H51.2232V17.6342H34.1622V15.4378H41.3061V14.2841H37.9339C37.1573 14.2841 36.8246 14.151 36.3365 13.6407L35.8706 13.1526C35.449 12.7089 35.2494 12.3761 35.2494 11.5552V8.73763C35.2494 8.18298 35.5156 7.91675 36.048 7.91675H50.0252V10.1353H38.0892V11.3334C38.0892 11.5109 38.1779 11.6218 38.2666 11.7105L38.4441 11.9102C38.5329 11.999 38.6438 12.0433 38.7769 12.0433H50.2249ZM48.7828 23.8462H37.956V24.534C37.956 24.6006 37.9782 24.6671 38.0448 24.7337L38.1113 24.8002C38.1779 24.8446 38.2445 24.8446 38.311 24.8446H50.8904V27.041H37.4014C36.6693 27.041 36.403 26.8857 36.0259 26.4642L35.6931 26.1092C35.2494 25.6655 35.1606 25.4436 35.1606 24.6228V22.5816C35.1606 22.1157 35.4712 21.8717 35.9815 21.8717H47.3629C47.496 21.8717 47.5847 21.8051 47.5847 21.672V20.8733H35.1828V18.6769H49.6037C50.1139 18.6769 50.4023 18.9653 50.4023 19.4756V22.2489C50.4023 23.1363 49.8255 23.8462 48.7828 23.8462ZM67.1118 7.78363H69.9516V14.3729C69.9516 14.9275 69.7076 15.1937 69.1751 15.1937H63.8061V16.5914H70.95V18.9875H53.889V16.5914H60.9441V15.1937H57.4609C56.7732 15.1937 56.4626 15.0828 55.9301 14.4838L55.553 14.0844C55.0649 13.552 54.9317 13.2857 54.9317 12.5314V7.78363H57.7937V9.0926H67.1118V7.78363ZM55.8636 20.2743H68.9976C69.6632 20.2743 70.0626 20.6958 70.0626 21.3392V25.7764C70.0626 26.4198 69.6632 26.8413 68.9976 26.8413H55.8636C55.198 26.8413 54.7986 26.4198 54.7986 25.7764V21.3392C54.7986 20.6958 55.198 20.2743 55.8636 20.2743ZM57.5719 24.4453H67.2893V22.6704H57.5719V24.4453ZM58.5259 12.8198H67.1118V11.4443H57.7937V11.9768C57.7937 12.1543 57.8159 12.2208 57.9268 12.3317L58.1709 12.6202C58.2818 12.7533 58.3484 12.8198 58.5259 12.8198ZM86.3283 7.78363H89.1903V14.9053H91.7639V17.3901H89.1903V26.797H86.3283V7.78363ZM77.8977 22.8257H84.1985V25.2883H77.2986C76.3225 25.2883 75.9897 25.1552 75.3463 24.4675L74.237 23.2694C73.6601 22.626 73.527 22.3154 73.527 21.2283V9.11479C73.527 8.56014 73.7933 8.29391 74.3257 8.29391H83.3554V10.7344H76.4334V21.2061C76.4334 21.4502 76.4999 21.6055 76.6774 21.8273L77.343 22.5816C77.5205 22.7591 77.698 22.8257 77.8977 22.8257ZM101.684 17.7895H96.3598V21.2283C96.3598 21.4502 96.4264 21.6055 96.6039 21.783L97.2473 22.6038C97.3804 22.7591 97.5135 22.8257 97.7353 22.8257H104.28V25.2883H97.0476C96.1601 25.2883 95.8052 25.1774 95.2061 24.534L94.1634 23.2694C93.6309 22.6926 93.52 22.4042 93.52 21.3614V16.1477C93.52 15.6375 93.7862 15.3934 94.2965 15.3934H100.109C100.353 15.3934 100.442 15.2825 100.442 15.0606V10.7565H93.5644V8.31609H102.505C103.038 8.31609 103.304 8.58232 103.304 9.13697V16.1921C103.304 17.2792 102.794 17.7895 101.684 17.7895ZM106.787 7.78363H109.627V26.797H106.787V7.78363Z" fill="white"/>
</svg>
