<svg width="44" height="35" viewBox="0 0 44 35" fill="none" xmlns="http://www.w3.org/2000/svg">
<path d="M25.3314 20.2744C24.3051 20.2744 23.3209 20.6821 22.5953 21.4078C21.8696 22.1334 21.4619 23.1176 21.4619 24.1439V24.4019C21.4619 24.4019 21.4619 32.6567 32.2964 32.6567H32.3212C43.1557 32.6567 43.1557 24.4019 43.1557 24.4019V24.1439C43.1557 23.1178 42.7482 22.1338 42.0228 21.4081C41.2973 20.6825 40.3134 20.2747 39.2873 20.2744H25.3314Z" fill="url(#paint0_linear_9182_6323)"/>
<path d="M25.3314 20.2744C24.3051 20.2744 23.3209 20.6821 22.5953 21.4078C21.8696 22.1334 21.4619 23.1176 21.4619 24.1439V24.4019C21.4619 24.4019 21.4619 32.6567 32.2964 32.6567H32.3212C43.1557 32.6567 43.1557 24.4019 43.1557 24.4019V24.1439C43.1557 23.1178 42.7482 22.1338 42.0228 21.4081C41.2973 20.6825 40.3134 20.2747 39.2873 20.2744H25.3314Z" fill="url(#paint1_radial_9182_6323)" fill-opacity="0.5"/>
<path d="M4.20248 20.2744C3.17624 20.2744 2.19202 20.6821 1.46635 21.4078C0.740684 22.1334 0.333008 23.1176 0.333008 24.1439V25.4337C0.333008 25.4337 0.333008 34.7205 13.7472 34.7205C27.1614 34.7205 27.1614 25.4337 27.1614 25.4337V24.1439C27.1614 23.1176 26.7537 22.1334 26.028 21.4078C25.3024 20.6821 24.3181 20.2744 23.2919 20.2744H4.20248Z" fill="url(#paint2_linear_9182_6323)"/>
<path d="M4.20248 20.2744C3.17624 20.2744 2.19202 20.6821 1.46635 21.4078C0.740684 22.1334 0.333008 23.1176 0.333008 24.1439V25.4337C0.333008 25.4337 0.333008 34.7205 13.7472 34.7205C27.1614 34.7205 27.1614 25.4337 27.1614 25.4337V24.1439C27.1614 23.1176 26.7537 22.1334 26.028 21.4078C25.3024 20.6821 24.3181 20.2744 23.2919 20.2744H4.20248Z" fill="url(#paint3_linear_9182_6323)"/>
<path d="M32.3206 17.1792C33.9626 17.1792 35.5373 16.5269 36.6984 15.3659C37.8594 14.2048 38.5117 12.63 38.5117 10.988C38.5117 9.34604 37.8594 7.77129 36.6984 6.61022C35.5373 5.44916 33.9626 4.79688 32.3206 4.79688C30.6786 4.79688 29.1038 5.44916 27.9427 6.61022C26.7817 7.77129 26.1294 9.34604 26.1294 10.988C26.1294 12.63 26.7817 14.2048 27.9427 15.3659C29.1038 16.5269 30.6786 17.1792 32.3206 17.1792Z" fill="url(#paint4_linear_9182_6323)"/>
<path d="M13.7471 17.1787C15.9364 17.1787 18.0361 16.309 19.5842 14.7609C21.1322 13.2128 22.002 11.1132 22.002 8.92383C22.002 6.7345 21.1322 4.63484 19.5842 3.08674C18.0361 1.53865 15.9364 0.668945 13.7471 0.668945C11.5577 0.668945 9.45808 1.53865 7.90999 3.08674C6.3619 4.63484 5.49219 6.7345 5.49219 8.92383C5.49219 11.1132 6.3619 13.2128 7.90999 14.7609C9.45808 16.309 11.5577 17.1787 13.7471 17.1787Z" fill="url(#paint5_linear_9182_6323)"/>
<defs>
<linearGradient id="paint0_linear_9182_6323" x1="26.6202" y1="21.9202" x2="31.0665" y2="34.3593" gradientUnits="userSpaceOnUse">
<stop offset="0.125" stop-color="#9C6CFE"/>
<stop offset="1" stop-color="#7A41DC"/>
</linearGradient>
<radialGradient id="paint1_radial_9182_6323" cx="0" cy="0" r="1" gradientUnits="userSpaceOnUse" gradientTransform="translate(18.7099 26.4656) rotate(-7.2084) scale(14.3909 14.5957)">
<stop offset="0.392" stop-color="#3B148A"/>
<stop offset="1" stop-color="#3B148A" stop-opacity="0"/>
</radialGradient>
<linearGradient id="paint2_linear_9182_6323" x1="6.713" y1="22.1947" x2="11.669" y2="36.8905" gradientUnits="userSpaceOnUse">
<stop offset="0.125" stop-color="#BD96FF"/>
<stop offset="1" stop-color="#9C6CFE"/>
</linearGradient>
<linearGradient id="paint3_linear_9182_6323" x1="13.7472" y1="18.5543" x2="20.7102" y2="42.7174" gradientUnits="userSpaceOnUse">
<stop stop-color="#885EDB" stop-opacity="0"/>
<stop offset="1" stop-color="#E362F8"/>
</linearGradient>
<linearGradient id="paint4_linear_9182_6323" x1="29.0743" y1="6.44269" x2="35.3841" y2="16.5188" gradientUnits="userSpaceOnUse">
<stop offset="0.125" stop-color="#9C6CFE"/>
<stop offset="1" stop-color="#7A41DC"/>
</linearGradient>
<linearGradient id="paint5_linear_9182_6323" x1="9.41842" y1="2.86371" x2="17.8322" y2="16.2985" gradientUnits="userSpaceOnUse">
<stop offset="0.125" stop-color="#BD96FF"/>
<stop offset="1" stop-color="#9C6CFE"/>
</linearGradient>
</defs>
</svg>
