<svg width="44" height="44" viewBox="0 0 44 44" fill="none" xmlns="http://www.w3.org/2000/svg">
<path d="M0.109863 6.70093C0.109863 5.05893 0.762145 3.48418 1.92321 2.32312C3.08428 1.16205 4.65903 0.509766 6.30103 0.509766H37.2568C38.8988 0.509766 40.4736 1.16205 41.6346 2.32312C42.7957 3.48418 43.448 5.05893 43.448 6.70093V28.37L0.109863 20.631V6.70093Z" fill="#50E2FF"/>
<path d="M24.1 8.24827H20.6175C20.2989 8.24821 19.9854 8.16951 19.7046 8.01916C19.4238 7.86881 19.1845 7.65146 19.0078 7.38641C18.8312 7.12136 18.7227 6.8168 18.6921 6.49976C18.6614 6.18273 18.7095 5.86303 18.8321 5.56904C18.9546 5.27506 19.1479 5.01588 19.3947 4.81451C19.6415 4.61314 19.9341 4.47581 20.2467 4.41472C20.5593 4.35362 20.8822 4.37065 21.1866 4.46428C21.4911 4.55792 21.7677 4.72527 21.9919 4.95148C22.1642 4.57892 22.4323 4.25871 22.7687 4.02349C23.1051 3.78826 23.4978 3.64644 23.9069 3.61246C24.316 3.57848 24.7267 3.65357 25.0973 3.83007C25.4679 4.00657 25.7851 4.27817 26.0166 4.6172C26.248 4.95622 26.3854 5.35054 26.4148 5.75997C26.4442 6.16941 26.3645 6.57931 26.1838 6.94791C26.0032 7.31651 25.7281 7.63062 25.3865 7.85824C25.0449 8.08585 24.649 8.21884 24.2393 8.24363V8.24827H24.1ZM34.9345 17.535H26.4635C26.458 17.535 26.4525 17.5339 26.4475 17.5318C26.4424 17.5297 26.4378 17.5267 26.4339 17.5228C26.43 17.5189 26.427 17.5143 26.4249 17.5092C26.4228 17.5041 26.4217 17.4987 26.4217 17.4932C26.4214 17.4833 26.4179 17.4738 26.4118 17.466C26.4056 17.4582 26.3972 17.4525 26.3876 17.4499C25.863 17.3372 25.3675 17.1166 24.9327 16.8021C24.4979 16.4877 24.1332 16.0862 23.8619 15.6233C23.5906 15.1603 23.4185 14.646 23.3566 14.113C23.2947 13.5799 23.3444 13.0399 23.5024 12.5271C23.6605 12.0143 23.9235 11.5399 24.2747 11.1342C24.6259 10.7285 25.0576 10.4003 25.5425 10.1704C26.0273 9.94046 26.5547 9.81392 27.0911 9.79877C27.6275 9.78363 28.1612 9.88022 28.6582 10.0824C29.1845 10.2975 29.881 10.0824 30.1472 9.57937C30.7134 8.51031 31.6211 7.66153 32.7257 7.16828C33.8303 6.67503 35.0683 6.56571 36.2422 6.85773C37.4162 7.14975 38.4586 7.82631 39.2034 8.77959C39.9482 9.73287 40.3524 10.908 40.3518 12.1177C40.3519 13.5409 39.792 14.907 38.7931 15.9207C37.7942 16.9344 36.4365 17.5143 35.0135 17.535H34.9345Z" fill="#F3EEF8"/>
<path d="M7.79452 43.8481H10.9319L17.1354 42.3004V8.63591C17.1354 7.56793 16.2687 6.70117 15.2007 6.70117H12.879C11.811 6.70117 10.9443 7.56793 10.9443 8.63591V9.79675H5.14006C4.07208 9.79675 3.20532 10.6635 3.20532 11.7315V41.4723L7.79452 43.8481ZM24.8744 42.3004L29.5116 43.8481H32.6226L40.3523 41.4723V24.1138C40.3523 23.0458 39.4855 22.1791 38.4176 22.1791H26.8091C25.7412 22.1791 24.8744 23.0458 24.8744 24.1138V42.3004Z" fill="#1C5CD7"/>
<path d="M0.109863 19.0828V37.6563C0.109863 39.2983 0.762145 40.8731 1.92321 42.0341C3.08428 43.1952 4.65903 43.8475 6.30103 43.8475H7.84882V21.0176C7.84882 19.9496 6.98205 19.0828 5.91408 19.0828H0.109863ZM10.9444 43.8475H29.5179V34.9477C29.5179 33.8797 28.6511 33.0129 27.5831 33.0129H26.4223V16.3742C26.4223 15.3062 25.5555 14.4395 24.4876 14.4395H12.8791C11.8112 14.4395 10.9444 15.3062 10.9444 16.3742V43.8475ZM32.6135 43.8475H37.2568C38.8988 43.8475 40.4736 43.1952 41.6346 42.0341C42.7957 40.8731 43.448 39.2983 43.448 37.6563V26.8218H34.5482C33.4802 26.8218 32.6135 27.6885 32.6135 28.7565V43.8475Z" fill="#46A4FB"/>
<path d="M14.8137 17.5352C14.6084 17.5352 14.4116 17.6167 14.2665 17.7618C14.1213 17.907 14.0398 18.1038 14.0398 18.3091V19.8568C14.0398 20.0621 14.1213 20.2589 14.2665 20.4041C14.4116 20.5492 14.6084 20.6307 14.8137 20.6307H16.3615C16.5667 20.6307 16.7636 20.5492 16.9087 20.4041C17.0538 20.2589 17.1354 20.0621 17.1354 19.8568V18.3091C17.1354 18.1038 17.0538 17.907 16.9087 17.7618C16.7636 17.6167 16.5667 17.5352 16.3615 17.5352H14.8137ZM2.43137 28.3697C2.22612 28.3697 2.02927 28.4512 1.88414 28.5964C1.73901 28.7415 1.65747 28.9383 1.65747 29.1436V30.6914C1.65747 30.8966 1.73901 31.0935 1.88414 31.2386C2.02927 31.3837 2.22612 31.4653 2.43137 31.4653H3.97916C4.18441 31.4653 4.38125 31.3837 4.52638 31.2386C4.67152 31.0935 4.75305 30.8966 4.75305 30.6914V29.1436C4.75305 28.9383 4.67152 28.7415 4.52638 28.5964C4.38125 28.4512 4.18441 28.3697 3.97916 28.3697H2.43137ZM14.0398 24.5002C14.0398 24.295 14.1213 24.0981 14.2665 23.953C14.4116 23.8079 14.6084 23.7263 14.8137 23.7263H16.3615C16.5667 23.7263 16.7636 23.8079 16.9087 23.953C17.0538 24.0981 17.1354 24.295 17.1354 24.5002V26.048C17.1354 26.2533 17.0538 26.4501 16.9087 26.5952C16.7636 26.7404 16.5667 26.8219 16.3615 26.8219H14.8137C14.6084 26.8219 14.4116 26.7404 14.2665 26.5952C14.1213 26.4501 14.0398 26.2533 14.0398 26.048V24.5002ZM14.8137 36.1086C14.6084 36.1086 14.4116 36.1902 14.2665 36.3353C14.1213 36.4804 14.0398 36.6773 14.0398 36.8825V38.4303C14.0398 38.6356 14.1213 38.8324 14.2665 38.9776C14.4116 39.1227 14.6084 39.2042 14.8137 39.2042H16.3615C16.5667 39.2042 16.7636 39.1227 16.9087 38.9776C17.0538 38.8324 17.1354 38.6356 17.1354 38.4303V36.8825C17.1354 36.6773 17.0538 36.4804 16.9087 36.3353C16.7636 36.1902 16.5667 36.1086 16.3615 36.1086H14.8137ZM20.231 24.5002C20.231 24.295 20.3125 24.0981 20.4576 23.953C20.6028 23.8079 20.7996 23.7263 21.0049 23.7263H22.5526C22.7579 23.7263 22.9547 23.8079 23.0999 23.953C23.245 24.0981 23.3265 24.295 23.3265 24.5002V26.048C23.3265 26.2533 23.245 26.4501 23.0999 26.5952C22.9547 26.7404 22.7579 26.8219 22.5526 26.8219H21.0049C20.7996 26.8219 20.6028 26.7404 20.4576 26.5952C20.3125 26.4501 20.231 26.2533 20.231 26.048V24.5002ZM21.0049 29.9175C20.7996 29.9175 20.6028 29.999 20.4576 30.1441C20.3125 30.2893 20.231 30.4861 20.231 30.6914V32.2392C20.231 32.4444 20.3125 32.6413 20.4576 32.7864C20.6028 32.9315 20.7996 33.0131 21.0049 33.0131H22.5526C22.7579 33.0131 22.9547 32.9315 23.0999 32.7864C23.245 32.6413 23.3265 32.4444 23.3265 32.2392V30.6914C23.3265 30.4861 23.245 30.2893 23.0999 30.1441C22.9547 29.999 22.7579 29.9175 22.5526 29.9175H21.0049ZM34.1611 31.4653C34.1611 31.0548 34.3241 30.6611 34.6144 30.3708C34.9047 30.0805 35.2984 29.9175 35.7089 29.9175H43.4478V33.0131H35.7089C35.2984 33.0131 34.9047 32.85 34.6144 32.5597C34.3241 32.2695 34.1611 31.8758 34.1611 31.4653ZM35.7089 36.1086C35.2984 36.1086 34.9047 36.2717 34.6144 36.562C34.3241 36.8522 34.1611 37.2459 34.1611 37.6564C34.1611 38.0669 34.3241 38.4606 34.6144 38.7509C34.9047 39.0412 35.2984 39.2042 35.7089 39.2042H43.4478V36.1086H35.7089Z" fill="#FFF478"/>
<path d="M14.8137 17.5352C14.6084 17.5352 14.4116 17.6167 14.2665 17.7618C14.1213 17.907 14.0398 18.1038 14.0398 18.3091H15.5876C15.7928 18.3091 15.9897 18.3906 16.1348 18.5357C16.2799 18.6809 16.3615 18.8777 16.3615 19.0829V20.6307C16.5667 20.6307 16.7636 20.5492 16.9087 20.4041C17.0538 20.2589 17.1354 20.0621 17.1354 19.8568V18.3091C17.1354 18.1038 17.0538 17.907 16.9087 17.7618C16.7636 17.6167 16.5667 17.5352 16.3615 17.5352H14.8137ZM2.43137 28.3697C2.22612 28.3697 2.02927 28.4512 1.88414 28.5964C1.73901 28.7415 1.65747 28.9383 1.65747 29.1436H3.20526C3.41051 29.1436 3.60735 29.2251 3.75249 29.3703C3.89762 29.5154 3.97916 29.7122 3.97916 29.9175V31.4653C4.18441 31.4653 4.38125 31.3837 4.52638 31.2386C4.67152 31.0935 4.75305 30.8966 4.75305 30.6914V29.1436C4.75305 28.9383 4.67152 28.7415 4.52638 28.5964C4.38125 28.4512 4.18441 28.3697 3.97916 28.3697H2.43137ZM14.0398 24.5002C14.0398 24.295 14.1213 24.0981 14.2665 23.953C14.4116 23.8079 14.6084 23.7263 14.8137 23.7263H16.3615C16.5667 23.7263 16.7636 23.8079 16.9087 23.953C17.0538 24.0981 17.1354 24.295 17.1354 24.5002V26.048C17.1354 26.2533 17.0538 26.4501 16.9087 26.5952C16.7636 26.7404 16.5667 26.8219 16.3615 26.8219V25.2741C16.3615 25.0689 16.2799 24.872 16.1348 24.7269C15.9897 24.5817 15.7928 24.5002 15.5876 24.5002H14.0398ZM14.8137 36.1086C14.6084 36.1086 14.4116 36.1902 14.2665 36.3353C14.1213 36.4804 14.0398 36.6773 14.0398 36.8825H15.5876C15.7928 36.8825 15.9897 36.9641 16.1348 37.1092C16.2799 37.2543 16.3615 37.4512 16.3615 37.6564V39.2042C16.5667 39.2042 16.7636 39.1227 16.9087 38.9776C17.0538 38.8324 17.1354 38.6356 17.1354 38.4303V36.8825C17.1354 36.6773 17.0538 36.4804 16.9087 36.3353C16.7636 36.1902 16.5667 36.1086 16.3615 36.1086H14.8137ZM20.231 24.5002C20.231 24.295 20.3125 24.0981 20.4576 23.953C20.6028 23.8079 20.7996 23.7263 21.0049 23.7263H22.5526C22.7579 23.7263 22.9547 23.8079 23.0999 23.953C23.245 24.0981 23.3265 24.295 23.3265 24.5002V26.048C23.3265 26.2533 23.245 26.4501 23.0999 26.5952C22.9547 26.7404 22.7579 26.8219 22.5526 26.8219V25.2741C22.5526 25.0689 22.4711 24.872 22.326 24.7269C22.1808 24.5817 21.984 24.5002 21.7787 24.5002H20.231ZM21.0049 29.9175C20.7996 29.9175 20.6028 29.999 20.4576 30.1441C20.3125 30.2893 20.231 30.4861 20.231 30.6914H21.7787C21.984 30.6914 22.1808 30.7729 22.326 30.918C22.4711 31.0632 22.5526 31.26 22.5526 31.4653V33.0131C22.7579 33.0131 22.9547 32.9315 23.0999 32.7864C23.245 32.6413 23.3265 32.4444 23.3265 32.2392V30.6914C23.3265 30.4861 23.245 30.2893 23.0999 30.1441C22.9547 29.999 22.7579 29.9175 22.5526 29.9175H21.0049ZM35.7089 29.9175C35.4372 29.9175 35.1703 29.989 34.935 30.1249C34.6997 30.2607 34.5043 30.4561 34.3685 30.6914H43.4478V29.9175H35.7089ZM35.7089 36.1086C35.4372 36.1087 35.1703 36.1802 34.935 36.316C34.6997 36.4519 34.5043 36.6472 34.3685 36.8825H43.4478V36.1086H35.7089Z" fill="#FCD53F"/>
<path d="M20.231 18.3091C20.231 18.1038 20.3125 17.907 20.4576 17.7618C20.6028 17.6167 20.7996 17.5352 21.0049 17.5352H22.5526C22.7579 17.5352 22.9547 17.6167 23.0999 17.7618C23.245 17.907 23.3265 18.1038 23.3265 18.3091V19.8568C23.3265 20.0621 23.245 20.2589 23.0999 20.4041C22.9547 20.5492 22.7579 20.6307 22.5526 20.6307H21.0049C20.7996 20.6307 20.6028 20.5492 20.4576 20.4041C20.3125 20.2589 20.231 20.0621 20.231 19.8568V18.3091ZM1.65747 22.9524C1.65747 22.7472 1.73901 22.5503 1.88414 22.4052C2.02927 22.2601 2.22612 22.1785 2.43137 22.1785H3.97916C4.18441 22.1785 4.38125 22.2601 4.52638 22.4052C4.67152 22.5503 4.75305 22.7472 4.75305 22.9524V24.5002C4.75305 24.7055 4.67152 24.9023 4.52638 25.0474C4.38125 25.1926 4.18441 25.2741 3.97916 25.2741H2.43137C2.22612 25.2741 2.02927 25.1926 1.88414 25.0474C1.73901 24.9023 1.65747 24.7055 1.65747 24.5002V22.9524ZM1.65747 35.3347C1.65747 35.1295 1.73901 34.9327 1.88414 34.7875C2.02927 34.6424 2.22612 34.5609 2.43137 34.5609H3.97916C4.18441 34.5609 4.38125 34.6424 4.52638 34.7875C4.67152 34.9327 4.75305 35.1295 4.75305 35.3347V36.8825C4.75305 37.0878 4.67152 37.2846 4.52638 37.4298C4.38125 37.5749 4.18441 37.6564 3.97916 37.6564H2.43137C2.22612 37.6564 2.02927 37.5749 1.88414 37.4298C1.73901 37.2846 1.65747 37.0878 1.65747 36.8825V35.3347ZM14.8137 29.9175C14.6084 29.9175 14.4116 29.999 14.2665 30.1441C14.1213 30.2893 14.0398 30.4861 14.0398 30.6914V32.2392C14.0398 32.4444 14.1213 32.6413 14.2665 32.7864C14.4116 32.9315 14.6084 33.0131 14.8137 33.0131H16.3615C16.5667 33.0131 16.7636 32.9315 16.9087 32.7864C17.0538 32.6413 17.1354 32.4444 17.1354 32.2392V30.6914C17.1354 30.4861 17.0538 30.2893 16.9087 30.1441C16.7636 29.999 16.5667 29.9175 16.3615 29.9175H14.8137ZM21.0049 36.1086C20.7996 36.1086 20.6028 36.1902 20.4576 36.3353C20.3125 36.4804 20.231 36.6773 20.231 36.8825V38.4303C20.231 38.6356 20.3125 38.8324 20.4576 38.9776C20.6028 39.1227 20.7996 39.2042 21.0049 39.2042H22.5526C22.7579 39.2042 22.9547 39.1227 23.0999 38.9776C23.245 38.8324 23.3265 38.6356 23.3265 38.4303V36.8825C23.3265 36.6773 23.245 36.4804 23.0999 36.3353C22.9547 36.1902 22.7579 36.1086 22.5526 36.1086H21.0049Z" fill="#321B41"/>
<path d="M28.7438 34.5607V43.8475H29.5177V34.5607C29.5177 34.1502 29.3546 33.7565 29.0644 33.4663C28.7741 33.176 28.3804 33.0129 27.9699 33.0129H26.4221V15.9872C26.4221 15.5767 26.259 15.1831 25.9688 14.8928C25.6785 14.6025 25.2848 14.4395 24.8743 14.4395H20.231L24.8743 15.2133C25.0796 15.2133 25.2764 15.2949 25.4216 15.44C25.5667 15.5852 25.6482 15.782 25.6482 15.9872V33.3999C25.6482 33.6135 25.8216 33.7868 26.0352 33.7868H27.9699C28.1752 33.7868 28.372 33.8684 28.5171 34.0135C28.6623 34.1586 28.7438 34.3555 28.7438 34.5607Z" fill="#46A4FB"/>
</svg>
