<svg width="40" height="40" viewBox="0 0 40 40" fill="none" xmlns="http://www.w3.org/2000/svg">
<circle cx="20" cy="20" r="19.5" fill="#F2F2F2" stroke="#F2F2F2"/>
<g clip-path="url(#clip0_9865_25465)">
<path fill-rule="evenodd" clip-rule="evenodd" d="M23.8184 20.9238C24.9394 21.6848 25.7249 22.7159 25.7249 24.0906V26.5454H28.998V24.0906C28.998 22.3067 26.0768 21.2511 23.8184 20.9238Z" fill="#737373"/>
<path d="M17.5426 19.9993C19.3503 19.9993 20.8157 18.5339 20.8157 16.7262C20.8157 14.9185 19.3503 13.4531 17.5426 13.4531C15.7349 13.4531 14.2695 14.9185 14.2695 16.7262C14.2695 18.5339 15.7349 19.9993 17.5426 19.9993Z" fill="#737373"/>
<path fill-rule="evenodd" clip-rule="evenodd" d="M22.4535 19.9993C24.2619 19.9993 25.7266 18.5346 25.7266 16.7262C25.7266 14.9178 24.2619 13.4531 22.4535 13.4531C22.069 13.4531 21.7089 13.535 21.3652 13.6495C22.0444 14.4923 22.4535 15.5643 22.4535 16.7262C22.4535 17.8882 22.0444 18.9601 21.3652 19.8029C21.7089 19.9175 22.069 19.9993 22.4535 19.9993Z" fill="#737373"/>
<path fill-rule="evenodd" clip-rule="evenodd" d="M17.5442 20.8184C15.3595 20.8184 10.998 21.9148 10.998 24.0915V26.5463H24.0904V24.0915C24.0904 21.9148 19.729 20.8184 17.5442 20.8184Z" fill="#737373"/>
</g>
<defs>
<clipPath id="clip0_9865_25465">
<rect width="20" height="20" fill="white" transform="translate(10 10)"/>
</clipPath>
</defs>
</svg>
