<svg width="42" height="42" viewBox="0 0 42 42" fill="none" xmlns="http://www.w3.org/2000/svg">
<circle cx="21" cy="21" r="19.5238" fill="#F2F2F2" stroke="#F2F2F2" stroke-width="0.952381"/>
<path d="M19.8254 27.7878L17.7274 25.8571C16.7204 24.9378 15.8567 24.1174 15.1364 23.396C14.4161 22.6747 13.8217 21.9958 13.3532 21.3593C12.8846 20.7228 12.542 20.1075 12.3252 19.5134C12.1084 18.9194 12 18.297 12 17.6464C12 16.3168 12.4406 15.21 13.3217 14.326C14.2029 13.442 15.3008 13 16.6155 13C17.3428 13 18.0351 13.1521 18.6925 13.4562C19.3498 13.7603 19.9163 14.1952 20.3918 14.761C20.8674 14.1952 21.4338 13.7603 22.0912 13.4562C22.7485 13.1521 23.4409 13 24.1681 13C25.357 13 26.3535 13.3642 27.1577 14.0926C27.962 14.8211 28.462 15.6733 28.6578 16.6492C28.378 16.5361 28.0843 16.4653 27.7766 16.4371C27.4689 16.4088 27.1542 16.3946 26.8326 16.3946C25.6437 16.3946 24.5528 16.8791 23.5597 17.8479C22.5667 18.8168 22.0702 20.0297 22.0702 21.4866C22.0702 22.1655 22.217 22.855 22.5108 23.5552C22.8045 24.2553 23.2171 24.8246 23.7486 25.2631C23.4828 25.5035 23.1367 25.8112 22.7101 26.186C22.2835 26.5608 21.9163 26.8897 21.6086 27.1726L20.9373 27.7878C20.7834 27.9293 20.5981 28 20.3813 28C20.1645 28 19.9792 27.9293 19.8254 27.7878Z" fill="#737373"/>
<path d="M30 19.9913C30 19.7579 29.9231 19.5563 29.7692 19.3866C29.6014 19.231 29.4021 19.1532 29.1713 19.1532C28.9405 19.1532 28.7412 19.231 28.5734 19.3866L26.2027 21.7841L25.6153 21.19C25.4474 21.0344 25.2481 20.9566 25.0174 20.9566C24.7866 20.9566 24.5873 21.0344 24.4194 21.19C24.2516 21.3597 24.1677 21.5613 24.1677 21.7947C24.1677 22.0281 24.2516 22.2296 24.4194 22.3993L25.6153 23.5875C25.7691 23.7572 25.9649 23.8421 26.2027 23.8421C26.4405 23.8421 26.6363 23.7572 26.7901 23.5875L29.7692 20.5959C29.9231 20.4262 30 20.2247 30 19.9913Z" fill="#737373"/>
</svg>
